%TF.GenerationSoftware,KiCad,Pcbnew,9.0.2*%
%TF.CreationDate,2025-07-21T02:07:20+05:30*%
%TF.ProjectId,2,322e6b69-6361-4645-9f70-636258585858,rev?*%
%TF.SameCoordinates,Original*%
%TF.FileFunction,Copper,L2,Bot*%
%TF.FilePolarity,Positive*%
%FSLAX46Y46*%
G04 Gerber Fmt 4.6, Leading zero omitted, Abs format (unit mm)*
G04 Created by KiCad (PCBNEW 9.0.2) date 2025-07-21 02:07:20*
%MOMM*%
%LPD*%
G01*
G04 APERTURE LIST*
%TA.AperFunction,ComponentPad*%
%ADD10C,0.650000*%
%TD*%
%TA.AperFunction,ComponentPad*%
%ADD11O,1.050000X2.100000*%
%TD*%
%TA.AperFunction,ComponentPad*%
%ADD12C,0.400000*%
%TD*%
%TA.AperFunction,ComponentPad*%
%ADD13C,0.600000*%
%TD*%
%TA.AperFunction,ComponentPad*%
%ADD14C,1.700000*%
%TD*%
%TA.AperFunction,ComponentPad*%
%ADD15R,1.700000X1.700000*%
%TD*%
%TA.AperFunction,ComponentPad*%
%ADD16C,1.208000*%
%TD*%
%TA.AperFunction,ViaPad*%
%ADD17C,0.600000*%
%TD*%
%TA.AperFunction,Conductor*%
%ADD18C,0.250000*%
%TD*%
%TA.AperFunction,Conductor*%
%ADD19C,0.600000*%
%TD*%
%TA.AperFunction,Conductor*%
%ADD20C,0.300000*%
%TD*%
G04 APERTURE END LIST*
D10*
%TO.P,J1,B1,GNDB1*%
%TO.N,GND*%
X102957500Y-99092500D03*
%TO.P,J1,B2,SSTXP2*%
%TO.N,unconnected-(J1-SSTXP2-PadB2)*%
X102557500Y-99802500D03*
%TO.P,J1,B3,SSTXN2*%
%TO.N,unconnected-(J1-SSTXN2-PadB3)*%
X101757500Y-99802500D03*
%TO.P,J1,B4,VBUSB1*%
%TO.N,/VBUS*%
X101357500Y-99092500D03*
%TO.P,J1,B5,CC2*%
%TO.N,Net-(J1-CC2)*%
X100957500Y-99802500D03*
%TO.P,J1,B6,DP2*%
%TO.N,/USB_DP*%
X100557500Y-99092500D03*
%TO.P,J1,B7,DN2*%
%TO.N,/USB_DN*%
X99757500Y-99092500D03*
%TO.P,J1,B8,SBU2*%
%TO.N,unconnected-(J1-SBU2-PadB8)*%
X99357500Y-99802500D03*
%TO.P,J1,B9,VBUSB2*%
%TO.N,/VBUS*%
X98957500Y-99092500D03*
%TO.P,J1,B10,SSRXN1*%
%TO.N,unconnected-(J1-SSRXN1-PadB10)*%
X98557500Y-99802500D03*
%TO.P,J1,B11,SSRXP1*%
%TO.N,unconnected-(J1-SSRXP1-PadB11)*%
X97757500Y-99802500D03*
%TO.P,J1,B12,GNDB2*%
%TO.N,GND*%
X97357500Y-99092500D03*
%TO.P,J1,G1,GND/SHIELD*%
X102157500Y-99092500D03*
%TO.P,J1,G2,GND/SHIELD*%
X98157500Y-99092500D03*
D11*
%TO.P,J1,S1,GND/SHIELD*%
X95887500Y-100242500D03*
%TO.P,J1,S2,GND/SHIELD*%
X104427500Y-100242500D03*
%TO.P,J1,S3,GND/SHIELD*%
X95887500Y-104972500D03*
%TO.P,J1,S4,GND/SHIELD*%
X104427500Y-104972500D03*
%TD*%
D12*
%TO.P,U5,39,GND*%
%TO.N,GND*%
X155372500Y-64060000D03*
%TO.P,U5,38,GND*%
X154272500Y-64060000D03*
%TO.P,U5,37,GND*%
X155922500Y-63510000D03*
%TO.P,U5,36,GND*%
X154822500Y-63510000D03*
%TO.P,U5,35,GND*%
X153722500Y-63510000D03*
%TO.P,U5,34,GND*%
X155372500Y-62960000D03*
%TO.P,U5,33,GND*%
X154272500Y-62960000D03*
%TO.P,U5,32,GND*%
X155922500Y-62410000D03*
%TO.P,U5,31,GND*%
X154822500Y-62410000D03*
D13*
%TO.P,U5,30,GND*%
X153722500Y-62410000D03*
D12*
%TO.P,U5,29,GND*%
X155372500Y-61860000D03*
%TO.P,U5,28,GND*%
X154272500Y-61860000D03*
%TD*%
D14*
%TO.P,J5,5,Pin_5*%
%TO.N,GND*%
X80040000Y-51197500D03*
%TO.P,J5,4,Pin_4*%
%TO.N,/ESP32 C3/GPIO19*%
X82580000Y-51197500D03*
%TO.P,J5,3,Pin_3*%
%TO.N,/ESP32 C3/GPIO18*%
X85120000Y-51197500D03*
%TO.P,J5,2,Pin_2*%
%TO.N,/ESP32 C3/GPIO 8*%
X87660000Y-51197500D03*
D15*
%TO.P,J5,1,Pin_1*%
%TO.N,+3.3V*%
X90200000Y-51197500D03*
%TD*%
D14*
%TO.P,J4,4,Pin_4*%
%TO.N,GND*%
X105820000Y-51060000D03*
%TO.P,J4,3,Pin_3*%
%TO.N,/ESP32 C3/SCL*%
X103280000Y-51060000D03*
%TO.P,J4,2,Pin_2*%
%TO.N,/ESP32 C3/sDA*%
X100740000Y-51060000D03*
D15*
%TO.P,J4,1,Pin_1*%
%TO.N,+3.3V*%
X98200000Y-51060000D03*
%TD*%
D16*
%TO.P,MK1,OUT*%
%TO.N,Net-(C22-Pad1)*%
X69122500Y-65422500D03*
%TO.P,MK1,GND*%
%TO.N,GND*%
X69122500Y-63522500D03*
%TD*%
D17*
%TO.N,GND*%
X99200000Y-102000000D03*
X100877500Y-105522500D03*
X100262500Y-89937500D03*
X100500000Y-84300000D03*
%TO.N,/USB_DN*%
X100842649Y-96157351D03*
%TO.N,/USB_DP*%
X99400000Y-95600000D03*
%TO.N,GND*%
X143200000Y-70200000D03*
X141421996Y-70978004D03*
X141000000Y-68800000D03*
X139200000Y-69200000D03*
X133922702Y-67522702D03*
X137400000Y-63000000D03*
X95865000Y-97600000D03*
%TO.N,Net-(U3-VBUS)*%
X102800000Y-84600000D03*
X102400000Y-89400000D03*
%TO.N,Net-(U7-IN+)*%
X86400000Y-67400000D03*
X86400000Y-71400000D03*
%TO.N,Net-(U7-IN-)*%
X91800000Y-62079346D03*
X86600000Y-61000000D03*
%TO.N,Net-(C16-Pad2)*%
X90600000Y-61800000D03*
X86600000Y-62200000D03*
%TO.N,/VBUS*%
X101600000Y-95400000D03*
X96400000Y-95000000D03*
%TO.N,GND*%
X103800000Y-97200000D03*
X107800000Y-94800000D03*
X96600000Y-96400000D03*
%TO.N,/ESP32 C3/DTR*%
X128000000Y-99200000D03*
X99800000Y-83800000D03*
%TO.N,GND*%
X139900000Y-79100000D03*
X116300000Y-61300000D03*
%TO.N,/ESP32 C3/Photo C*%
X107800000Y-73200000D03*
X165200000Y-59000000D03*
%TO.N,/ESP32 C3/CS*%
X150600000Y-65000000D03*
X119000000Y-63800000D03*
%TO.N,/ESP32 C3/TX_RX*%
X159557231Y-67584205D03*
X138974000Y-72974000D03*
X99800000Y-76800000D03*
X96806655Y-85393345D03*
%TO.N,/ESP32 C3/RX_TX*%
X159400000Y-66200000D03*
X134800000Y-73600000D03*
X109000000Y-78000000D03*
X97600000Y-82200000D03*
%TO.N,/ESP32 C3/BOOT*%
X140600000Y-95600000D03*
X148000000Y-68200000D03*
%TO.N,/ESP32 C3/MIC_OUT*%
X94600000Y-59200000D03*
X141238500Y-61961500D03*
%TO.N,/ESP32 C3/GPIO 8*%
X88400000Y-53700000D03*
X143200000Y-66800000D03*
%TO.N,/ESP32 C3/SCL*%
X105400000Y-56200000D03*
%TO.N,/ESP32 C3/sDA*%
X98800000Y-59000000D03*
X146800000Y-60200000D03*
%TO.N,/ESP32 C3/SCL*%
X147800000Y-56800000D03*
%TO.N,/ESP32 C3/GPIO18*%
X160900000Y-63900000D03*
X88220000Y-56780000D03*
%TO.N,/ESP32 C3/GPIO19*%
X82800000Y-56000000D03*
X158200000Y-62200000D03*
%TO.N,/ESP32 C3/EN*%
X143600000Y-60800000D03*
X126200000Y-84400000D03*
%TO.N,/ESP32 C3/RTS*%
X127200000Y-93000000D03*
X98500000Y-83700000D03*
%TO.N,GND*%
X128200000Y-75600000D03*
%TO.N,Net-(U4-DO(IO1))*%
X131200000Y-60600000D03*
X124000000Y-68400000D03*
%TO.N,GND*%
X61200000Y-52600000D03*
X142400000Y-60200000D03*
X143440000Y-68760000D03*
X133400000Y-74800000D03*
X152000000Y-86000000D03*
X152400000Y-77000000D03*
X147200000Y-78200000D03*
X138200000Y-78200000D03*
X138600000Y-86800000D03*
X113600000Y-83600000D03*
X111200000Y-83600000D03*
X132400000Y-100600000D03*
X132400000Y-104324000D03*
X120625000Y-102425000D03*
X124000000Y-104304000D03*
X106227500Y-100600000D03*
X102227500Y-104600000D03*
X97055000Y-104972500D03*
X96827500Y-101400000D03*
X91087500Y-103460000D03*
X90827500Y-100400000D03*
X71400000Y-95800000D03*
X77200000Y-95800000D03*
X74200000Y-95800000D03*
X76200000Y-88200000D03*
X74800000Y-85800000D03*
X74200000Y-83600000D03*
X71800000Y-83400000D03*
X66800000Y-80000000D03*
X103800000Y-84600000D03*
X106200000Y-83000000D03*
X106245000Y-65645000D03*
X119800000Y-65800000D03*
X105000000Y-66910000D03*
X102600000Y-64960000D03*
X102600000Y-67560000D03*
X101650000Y-63800000D03*
X91800000Y-66600000D03*
X93200000Y-70200000D03*
X80400000Y-67600000D03*
X84800000Y-59400000D03*
X79000000Y-59800000D03*
X66200000Y-54800000D03*
X64370000Y-49430000D03*
X60800000Y-50600000D03*
X68400000Y-71000000D03*
X56800000Y-106800000D03*
X69200000Y-94200000D03*
X71000000Y-99600000D03*
X75182500Y-107417500D03*
X76200000Y-102600000D03*
%TD*%
D18*
%TO.N,/ESP32 C3/DTR*%
X126200000Y-101000000D02*
X128000000Y-99200000D01*
X109000000Y-94200000D02*
X115800000Y-101000000D01*
X109000000Y-88843991D02*
X109000000Y-94200000D01*
X103756009Y-83600000D02*
X109000000Y-88843991D01*
X100000000Y-83600000D02*
X103756009Y-83600000D01*
X99800000Y-83800000D02*
X100000000Y-83600000D01*
X115800000Y-101000000D02*
X126200000Y-101000000D01*
%TO.N,/USB_DN*%
X99757500Y-96842798D02*
X99757500Y-99092500D01*
X98600000Y-94600000D02*
X98600000Y-95166702D01*
X98774000Y-95340702D02*
X98774000Y-95859298D01*
X98774000Y-95859298D02*
X99757500Y-96842798D01*
X98600000Y-95166702D02*
X98774000Y-95340702D01*
X99659298Y-94974000D02*
X100842649Y-96157351D01*
X98600000Y-94600000D02*
X98974000Y-94974000D01*
X98974000Y-94974000D02*
X99659298Y-94974000D01*
%TO.N,/VBUS*%
X97600000Y-93800000D02*
X96400000Y-95000000D01*
X100000000Y-93800000D02*
X97600000Y-93800000D01*
X101600000Y-95400000D02*
X100000000Y-93800000D01*
%TO.N,/USB_DN*%
X100842649Y-96157351D02*
X100885298Y-96200000D01*
%TO.N,/USB_DP*%
X100557500Y-96957500D02*
X99400000Y-95800000D01*
X99400000Y-95800000D02*
X99400000Y-95600000D01*
X100557500Y-99092500D02*
X100557500Y-96957500D01*
D19*
%TO.N,GND*%
X142200000Y-70200000D02*
X143200000Y-70200000D01*
X141421996Y-70978004D02*
X142200000Y-70200000D01*
X140600000Y-69200000D02*
X141000000Y-68800000D01*
X139200000Y-69200000D02*
X140600000Y-69200000D01*
X137400000Y-64000000D02*
X137400000Y-63000000D01*
X133922702Y-67522702D02*
X133922702Y-67477298D01*
X133922702Y-67477298D02*
X137400000Y-64000000D01*
D18*
%TO.N,Net-(U3-VBUS)*%
X102400000Y-85000000D02*
X102800000Y-84600000D01*
X102400000Y-89400000D02*
X102400000Y-85000000D01*
D20*
%TO.N,Net-(U7-IN+)*%
X86400000Y-71400000D02*
X86400000Y-67400000D01*
%TO.N,Net-(U7-IN-)*%
X90720654Y-61000000D02*
X91800000Y-62079346D01*
X86600000Y-61000000D02*
X90720654Y-61000000D01*
%TO.N,Net-(C16-Pad2)*%
X87000000Y-61800000D02*
X90600000Y-61800000D01*
X86600000Y-62200000D02*
X87000000Y-61800000D01*
D18*
%TO.N,/ESP32 C3/GPIO19*%
X146800000Y-58374000D02*
X146626000Y-58200000D01*
X154374000Y-58374000D02*
X146800000Y-58374000D01*
X156160000Y-60160000D02*
X154374000Y-58374000D01*
X146626000Y-58200000D02*
X85000000Y-58200000D01*
X85000000Y-58200000D02*
X82800000Y-56000000D01*
X158200000Y-62200000D02*
X156200000Y-60200000D01*
%TO.N,/ESP32 C3/Photo C*%
X165200000Y-79200000D02*
X165200000Y-59000000D01*
X117200000Y-108400000D02*
X136000000Y-108400000D01*
X111800000Y-103000000D02*
X117200000Y-108400000D01*
X136000000Y-108400000D02*
X165200000Y-79200000D01*
X96845794Y-103000000D02*
X111800000Y-103000000D01*
X93600000Y-99754206D02*
X96845794Y-103000000D01*
X93600000Y-79400000D02*
X93600000Y-99754206D01*
X107800000Y-73200000D02*
X99800000Y-73200000D01*
X99800000Y-73200000D02*
X93600000Y-79400000D01*
%TO.N,/ESP32 C3/RTS*%
X125600000Y-91400000D02*
X127200000Y-93000000D01*
X125600000Y-89600000D02*
X125600000Y-91400000D01*
X116600000Y-80600000D02*
X125600000Y-89600000D01*
X106200000Y-80600000D02*
X116600000Y-80600000D01*
X103800000Y-83000000D02*
X106200000Y-80600000D01*
X99200000Y-83000000D02*
X103800000Y-83000000D01*
X98500000Y-83700000D02*
X99200000Y-83000000D01*
%TO.N,/ESP32 C3/CS*%
X140400000Y-65000000D02*
X150600000Y-65000000D01*
X130600000Y-74800000D02*
X140400000Y-65000000D01*
X125400000Y-85400000D02*
X126600000Y-85400000D01*
X118600000Y-67800000D02*
X120000000Y-69200000D01*
X120000000Y-69200000D02*
X120000000Y-80000000D01*
X118600000Y-64200000D02*
X118600000Y-67800000D01*
X120000000Y-80000000D02*
X125400000Y-85400000D01*
X119000000Y-63800000D02*
X118600000Y-64200000D01*
X126600000Y-85400000D02*
X130600000Y-81400000D01*
X130600000Y-81400000D02*
X130600000Y-74800000D01*
%TO.N,/ESP32 C3/GPIO 8*%
X82700000Y-53700000D02*
X88400000Y-53700000D01*
X81000000Y-55400000D02*
X82700000Y-53700000D01*
X81000000Y-57200000D02*
X81000000Y-55400000D01*
X83876000Y-60076000D02*
X81000000Y-57200000D01*
X96759991Y-60076000D02*
X83876000Y-60076000D01*
X123283991Y-86600000D02*
X96759991Y-60076000D01*
X126200000Y-86600000D02*
X123283991Y-86600000D01*
X132400000Y-75000000D02*
X132400000Y-80400000D01*
X132724000Y-74676000D02*
X132400000Y-75000000D01*
X132724000Y-74519991D02*
X132724000Y-74676000D01*
X133119991Y-74124000D02*
X132724000Y-74519991D01*
X133276000Y-74124000D02*
X133119991Y-74124000D01*
X143200000Y-66800000D02*
X140600000Y-66800000D01*
X140600000Y-66800000D02*
X133276000Y-74124000D01*
X132400000Y-80400000D02*
X126200000Y-86600000D01*
%TO.N,/ESP32 C3/TX_RX*%
X147740702Y-67574000D02*
X159574000Y-67574000D01*
X142340702Y-72974000D02*
X147740702Y-67574000D01*
X138974000Y-72974000D02*
X142340702Y-72974000D01*
X96806655Y-79793345D02*
X99800000Y-76800000D01*
X96806655Y-85393345D02*
X96806655Y-79793345D01*
%TO.N,/ESP32 C3/RX_TX*%
X144685298Y-66200000D02*
X159400000Y-66200000D01*
X137285298Y-73600000D02*
X144685298Y-66200000D01*
X134800000Y-73600000D02*
X137285298Y-73600000D01*
X99600000Y-78000000D02*
X109000000Y-78000000D01*
X97600000Y-80000000D02*
X99600000Y-78000000D01*
X97600000Y-82200000D02*
X97600000Y-80000000D01*
%TO.N,/ESP32 C3/GPIO18*%
X159546810Y-62546810D02*
X160900000Y-63900000D01*
X154986810Y-57749000D02*
X159546810Y-62309000D01*
X89189000Y-57749000D02*
X154986810Y-57749000D01*
X159546810Y-62309000D02*
X159546810Y-62546810D01*
X88220000Y-56780000D02*
X89189000Y-57749000D01*
%TO.N,/ESP32 C3/BOOT*%
X148000000Y-88200000D02*
X140600000Y-95600000D01*
X148000000Y-68200000D02*
X148000000Y-88200000D01*
%TO.N,/ESP32 C3/MIC_OUT*%
X96521801Y-59200000D02*
X94600000Y-59200000D01*
X97295801Y-59974000D02*
X96521801Y-59200000D01*
X139251000Y-59974000D02*
X97295801Y-59974000D01*
X141238500Y-61961500D02*
X139251000Y-59974000D01*
%TO.N,/ESP32 C3/GPIO 8*%
X88400000Y-53700000D02*
X88500000Y-53700000D01*
%TO.N,/ESP32 C3/SCL*%
X147600000Y-56600000D02*
X147800000Y-56800000D01*
X105800000Y-56600000D02*
X147600000Y-56600000D01*
X105400000Y-56200000D02*
X105800000Y-56600000D01*
%TO.N,/ESP32 C3/sDA*%
X99400000Y-59400000D02*
X99200000Y-59400000D01*
X146800000Y-59400000D02*
X99400000Y-59400000D01*
X99200000Y-59400000D02*
X98800000Y-59000000D01*
X146800000Y-60200000D02*
X146800000Y-59400000D01*
%TO.N,/ESP32 C3/EN*%
X126200000Y-76200000D02*
X126200000Y-84400000D01*
X141600000Y-62800000D02*
X139600000Y-62800000D01*
X143600000Y-60800000D02*
X141600000Y-62800000D01*
X139600000Y-62800000D02*
X126200000Y-76200000D01*
%TO.N,/ESP32 C3/RTS*%
X98600000Y-83800000D02*
X98500000Y-83700000D01*
D20*
%TO.N,Net-(U4-DO(IO1))*%
X131200000Y-67200000D02*
X131200000Y-60600000D01*
X124200000Y-68600000D02*
X129800000Y-68600000D01*
X124000000Y-68400000D02*
X124200000Y-68600000D01*
X129800000Y-68600000D02*
X131200000Y-67200000D01*
%TD*%
%TA.AperFunction,Conductor*%
%TO.N,GND*%
G36*
X128179418Y-48560816D02*
G01*
X128408020Y-48577165D01*
X128425529Y-48579683D01*
X128645144Y-48627458D01*
X128662103Y-48632437D01*
X128872694Y-48710983D01*
X128888777Y-48718327D01*
X129086036Y-48826040D01*
X129100919Y-48835605D01*
X129280836Y-48970289D01*
X129294207Y-48981875D01*
X129453124Y-49140792D01*
X129464710Y-49154163D01*
X129599394Y-49334080D01*
X129608959Y-49348963D01*
X129716669Y-49546217D01*
X129724019Y-49562311D01*
X129781307Y-49715909D01*
X129802559Y-49772887D01*
X129807543Y-49789862D01*
X129855316Y-50009470D01*
X129857834Y-50026982D01*
X129874184Y-50255581D01*
X129874500Y-50264427D01*
X129874500Y-53832405D01*
X129874500Y-53880000D01*
X129874500Y-54019155D01*
X129908046Y-54295435D01*
X129951007Y-54469735D01*
X129974651Y-54565662D01*
X130073341Y-54825884D01*
X130119663Y-54914142D01*
X130202677Y-55072311D01*
X130360774Y-55301355D01*
X130545327Y-55509673D01*
X130753645Y-55694226D01*
X130777153Y-55710452D01*
X130832202Y-55748450D01*
X130876192Y-55802733D01*
X130883852Y-55872181D01*
X130852749Y-55934746D01*
X130792758Y-55970564D01*
X130761762Y-55974500D01*
X106255904Y-55974500D01*
X106188865Y-55954815D01*
X106143110Y-55902011D01*
X106141343Y-55897952D01*
X106109397Y-55820827D01*
X106109390Y-55820814D01*
X106021789Y-55689711D01*
X106021786Y-55689707D01*
X105910292Y-55578213D01*
X105910288Y-55578210D01*
X105779185Y-55490609D01*
X105779172Y-55490602D01*
X105633501Y-55430264D01*
X105633489Y-55430261D01*
X105478845Y-55399500D01*
X105478842Y-55399500D01*
X105321158Y-55399500D01*
X105321155Y-55399500D01*
X105166510Y-55430261D01*
X105166498Y-55430264D01*
X105020827Y-55490602D01*
X105020814Y-55490609D01*
X104889711Y-55578210D01*
X104889707Y-55578213D01*
X104778213Y-55689707D01*
X104778210Y-55689711D01*
X104690609Y-55820814D01*
X104690602Y-55820827D01*
X104630264Y-55966498D01*
X104630261Y-55966510D01*
X104599500Y-56121153D01*
X104599500Y-56278846D01*
X104630261Y-56433489D01*
X104630264Y-56433501D01*
X104690602Y-56579172D01*
X104690609Y-56579185D01*
X104778210Y-56710288D01*
X104778213Y-56710292D01*
X104889707Y-56821786D01*
X104889711Y-56821789D01*
X105001370Y-56896398D01*
X105046175Y-56950010D01*
X105054882Y-57019335D01*
X105024727Y-57082363D01*
X104965284Y-57119082D01*
X104932479Y-57123500D01*
X89499452Y-57123500D01*
X89432413Y-57103815D01*
X89411771Y-57087181D01*
X89045793Y-56721203D01*
X89012308Y-56659880D01*
X89011887Y-56657864D01*
X88989737Y-56546503D01*
X88948124Y-56446040D01*
X88929397Y-56400827D01*
X88929390Y-56400814D01*
X88841789Y-56269711D01*
X88841786Y-56269707D01*
X88730292Y-56158213D01*
X88730288Y-56158210D01*
X88599185Y-56070609D01*
X88599172Y-56070602D01*
X88453501Y-56010264D01*
X88453489Y-56010261D01*
X88298845Y-55979500D01*
X88298842Y-55979500D01*
X88141158Y-55979500D01*
X88141155Y-55979500D01*
X87986510Y-56010261D01*
X87986498Y-56010264D01*
X87840827Y-56070602D01*
X87840814Y-56070609D01*
X87709711Y-56158210D01*
X87709707Y-56158213D01*
X87598213Y-56269707D01*
X87598210Y-56269711D01*
X87510609Y-56400814D01*
X87510602Y-56400827D01*
X87450264Y-56546498D01*
X87450261Y-56546510D01*
X87419500Y-56701153D01*
X87419500Y-56858846D01*
X87450261Y-57013489D01*
X87450264Y-57013501D01*
X87510602Y-57159172D01*
X87510609Y-57159185D01*
X87598210Y-57290288D01*
X87598213Y-57290292D01*
X87670740Y-57362819D01*
X87704225Y-57424142D01*
X87699241Y-57493834D01*
X87657369Y-57549767D01*
X87591905Y-57574184D01*
X87583059Y-57574500D01*
X85310452Y-57574500D01*
X85243413Y-57554815D01*
X85222771Y-57538181D01*
X83625793Y-55941203D01*
X83592308Y-55879880D01*
X83591887Y-55877864D01*
X83569737Y-55766503D01*
X83533762Y-55679650D01*
X83509397Y-55620827D01*
X83509390Y-55620814D01*
X83421789Y-55489711D01*
X83421786Y-55489707D01*
X83310292Y-55378213D01*
X83310288Y-55378210D01*
X83179185Y-55290609D01*
X83179172Y-55290602D01*
X83033501Y-55230264D01*
X83033489Y-55230261D01*
X82878845Y-55199500D01*
X82878842Y-55199500D01*
X82721158Y-55199500D01*
X82721155Y-55199500D01*
X82566510Y-55230261D01*
X82566498Y-55230264D01*
X82420827Y-55290602D01*
X82420814Y-55290609D01*
X82289711Y-55378210D01*
X82289707Y-55378213D01*
X82178213Y-55489707D01*
X82178210Y-55489711D01*
X82090609Y-55620814D01*
X82090602Y-55620827D01*
X82030264Y-55766498D01*
X82030261Y-55766510D01*
X81999500Y-55921153D01*
X81999500Y-56078846D01*
X82030261Y-56233489D01*
X82030264Y-56233501D01*
X82090602Y-56379172D01*
X82090609Y-56379185D01*
X82178210Y-56510288D01*
X82178213Y-56510292D01*
X82289707Y-56621786D01*
X82289711Y-56621789D01*
X82420814Y-56709390D01*
X82420827Y-56709397D01*
X82508230Y-56745599D01*
X82566503Y-56769737D01*
X82677716Y-56791858D01*
X82739623Y-56824241D01*
X82741203Y-56825793D01*
X84514139Y-58598729D01*
X84514142Y-58598733D01*
X84601267Y-58685858D01*
X84678190Y-58737256D01*
X84683990Y-58741132D01*
X84683993Y-58741134D01*
X84703710Y-58754309D01*
X84703713Y-58754311D01*
X84703715Y-58754312D01*
X84748186Y-58772732D01*
X84748187Y-58772733D01*
X84748188Y-58772733D01*
X84817548Y-58801463D01*
X84861755Y-58810256D01*
X84938391Y-58825499D01*
X84938392Y-58825500D01*
X84938393Y-58825500D01*
X84938394Y-58825500D01*
X93707216Y-58825500D01*
X93774255Y-58845185D01*
X93820010Y-58897989D01*
X93829954Y-58967147D01*
X93828833Y-58973692D01*
X93799500Y-59121155D01*
X93799500Y-59278841D01*
X93804168Y-59302310D01*
X93797940Y-59371901D01*
X93755076Y-59427078D01*
X93689186Y-59450322D01*
X93682550Y-59450500D01*
X84186452Y-59450500D01*
X84119413Y-59430815D01*
X84098771Y-59414181D01*
X81661819Y-56977229D01*
X81628334Y-56915906D01*
X81625500Y-56889548D01*
X81625500Y-55710452D01*
X81645185Y-55643413D01*
X81661819Y-55622771D01*
X82922771Y-54361819D01*
X82984094Y-54328334D01*
X83010452Y-54325500D01*
X87857650Y-54325500D01*
X87924689Y-54345185D01*
X87926541Y-54346398D01*
X88020821Y-54409394D01*
X88020823Y-54409395D01*
X88020827Y-54409397D01*
X88166498Y-54469735D01*
X88166503Y-54469737D01*
X88321153Y-54500499D01*
X88321156Y-54500500D01*
X88321158Y-54500500D01*
X88478844Y-54500500D01*
X88478845Y-54500499D01*
X88633497Y-54469737D01*
X88779179Y-54409394D01*
X88910289Y-54321789D01*
X89021789Y-54210289D01*
X89109394Y-54079179D01*
X89169737Y-53933497D01*
X89200500Y-53778842D01*
X89200500Y-53621158D01*
X89200500Y-53621155D01*
X89200499Y-53621153D01*
X89169738Y-53466510D01*
X89169737Y-53466503D01*
X89132876Y-53377511D01*
X89109397Y-53320827D01*
X89109390Y-53320814D01*
X89021789Y-53189711D01*
X89021786Y-53189707D01*
X88910292Y-53078213D01*
X88910288Y-53078210D01*
X88779185Y-52990609D01*
X88779172Y-52990602D01*
X88633501Y-52930264D01*
X88633489Y-52930261D01*
X88478845Y-52899500D01*
X88478842Y-52899500D01*
X88321158Y-52899500D01*
X88321155Y-52899500D01*
X88166510Y-52930261D01*
X88166498Y-52930264D01*
X88020827Y-52990602D01*
X88020815Y-52990609D01*
X87926541Y-53053602D01*
X87859864Y-53074480D01*
X87857650Y-53074500D01*
X82638389Y-53074500D01*
X82577971Y-53086518D01*
X82540259Y-53094019D01*
X82517550Y-53098536D01*
X82517548Y-53098537D01*
X82484207Y-53112347D01*
X82403719Y-53145684D01*
X82403705Y-53145692D01*
X82301272Y-53214138D01*
X82301264Y-53214144D01*
X80514144Y-55001264D01*
X80514138Y-55001272D01*
X80445690Y-55103708D01*
X80445688Y-55103713D01*
X80420553Y-55164396D01*
X80398538Y-55217544D01*
X80398535Y-55217556D01*
X80374500Y-55338389D01*
X80374500Y-57261611D01*
X80398535Y-57382444D01*
X80398540Y-57382461D01*
X80445684Y-57496278D01*
X80445687Y-57496285D01*
X80454448Y-57509395D01*
X80454449Y-57509397D01*
X80514141Y-57598732D01*
X80514144Y-57598736D01*
X80605586Y-57690178D01*
X80605608Y-57690198D01*
X83387016Y-60471606D01*
X83387045Y-60471637D01*
X83477263Y-60561855D01*
X83477267Y-60561858D01*
X83579707Y-60630307D01*
X83579713Y-60630310D01*
X83579714Y-60630311D01*
X83693548Y-60677463D01*
X83735754Y-60685858D01*
X83814391Y-60701499D01*
X83814392Y-60701500D01*
X83814393Y-60701500D01*
X83814394Y-60701500D01*
X85692098Y-60701500D01*
X85759137Y-60721185D01*
X85804892Y-60773989D01*
X85814836Y-60843147D01*
X85813715Y-60849691D01*
X85799500Y-60921153D01*
X85799500Y-61078846D01*
X85830261Y-61233489D01*
X85830264Y-61233501D01*
X85890602Y-61379172D01*
X85890609Y-61379185D01*
X85978210Y-61510288D01*
X85978213Y-61510292D01*
X85980240Y-61512319D01*
X85980962Y-61513642D01*
X85982076Y-61514999D01*
X85981818Y-61515210D01*
X86013725Y-61573642D01*
X86008741Y-61643334D01*
X85982001Y-61684939D01*
X85982076Y-61685001D01*
X85981552Y-61685639D01*
X85980240Y-61687681D01*
X85978213Y-61689707D01*
X85978210Y-61689711D01*
X85890609Y-61820814D01*
X85890602Y-61820827D01*
X85830264Y-61966498D01*
X85830261Y-61966510D01*
X85799500Y-62121153D01*
X85799500Y-62278846D01*
X85830261Y-62433489D01*
X85830264Y-62433501D01*
X85890602Y-62579172D01*
X85890609Y-62579185D01*
X85978210Y-62710288D01*
X85978213Y-62710292D01*
X86089707Y-62821786D01*
X86089711Y-62821789D01*
X86220814Y-62909390D01*
X86220827Y-62909397D01*
X86342998Y-62960001D01*
X86366503Y-62969737D01*
X86516131Y-62999500D01*
X86521153Y-63000499D01*
X86521156Y-63000500D01*
X86521158Y-63000500D01*
X86678844Y-63000500D01*
X86678845Y-63000499D01*
X86833497Y-62969737D01*
X86979179Y-62909394D01*
X87110289Y-62821789D01*
X87221789Y-62710289D01*
X87309394Y-62579179D01*
X87330987Y-62527047D01*
X87374827Y-62472644D01*
X87441121Y-62450579D01*
X87445548Y-62450500D01*
X90095065Y-62450500D01*
X90162104Y-62470185D01*
X90163909Y-62471366D01*
X90220821Y-62509394D01*
X90220823Y-62509395D01*
X90220827Y-62509397D01*
X90350023Y-62562911D01*
X90366503Y-62569737D01*
X90521153Y-62600499D01*
X90521156Y-62600500D01*
X90521158Y-62600500D01*
X90678844Y-62600500D01*
X90678845Y-62600499D01*
X90833497Y-62569737D01*
X90979179Y-62509394D01*
X90979184Y-62509390D01*
X90984546Y-62506525D01*
X90985512Y-62508333D01*
X91043232Y-62490233D01*
X91110620Y-62508688D01*
X91148601Y-62545321D01*
X91178210Y-62589634D01*
X91178213Y-62589638D01*
X91289707Y-62701132D01*
X91289711Y-62701135D01*
X91420814Y-62788736D01*
X91420827Y-62788743D01*
X91500611Y-62821790D01*
X91566503Y-62849083D01*
X91696957Y-62875032D01*
X91721153Y-62879845D01*
X91721156Y-62879846D01*
X91721158Y-62879846D01*
X91878844Y-62879846D01*
X91878845Y-62879845D01*
X92033497Y-62849083D01*
X92179179Y-62788740D01*
X92310289Y-62701135D01*
X92421789Y-62589635D01*
X92509394Y-62458525D01*
X92569737Y-62312843D01*
X92600500Y-62158188D01*
X92600500Y-62000504D01*
X92600500Y-62000501D01*
X92600499Y-62000499D01*
X92589453Y-61944968D01*
X92569737Y-61845849D01*
X92523644Y-61734570D01*
X92509397Y-61700173D01*
X92509390Y-61700160D01*
X92421789Y-61569057D01*
X92421786Y-61569053D01*
X92310292Y-61457559D01*
X92310288Y-61457556D01*
X92179185Y-61369955D01*
X92179172Y-61369948D01*
X92033501Y-61309610D01*
X92033489Y-61309607D01*
X91966420Y-61296266D01*
X91904509Y-61263881D01*
X91902930Y-61262330D01*
X91553781Y-60913181D01*
X91520296Y-60851858D01*
X91525280Y-60782166D01*
X91567152Y-60726233D01*
X91632616Y-60701816D01*
X91641462Y-60701500D01*
X96449539Y-60701500D01*
X96516578Y-60721185D01*
X96537220Y-60737819D01*
X107989325Y-72189925D01*
X108022810Y-72251248D01*
X108017826Y-72320940D01*
X107975954Y-72376873D01*
X107910490Y-72401290D01*
X107884946Y-72399691D01*
X107884907Y-72400097D01*
X107878845Y-72399500D01*
X107878842Y-72399500D01*
X107721158Y-72399500D01*
X107721155Y-72399500D01*
X107566510Y-72430261D01*
X107566498Y-72430264D01*
X107420827Y-72490602D01*
X107420815Y-72490609D01*
X107326541Y-72553602D01*
X107259864Y-72574480D01*
X107257650Y-72574500D01*
X99738389Y-72574500D01*
X99677971Y-72586518D01*
X99640259Y-72594019D01*
X99617550Y-72598536D01*
X99617548Y-72598537D01*
X99584207Y-72612347D01*
X99503718Y-72645685D01*
X99503709Y-72645690D01*
X99462230Y-72673407D01*
X99462227Y-72673409D01*
X99455785Y-72677714D01*
X99401267Y-72714142D01*
X99314142Y-72801267D01*
X99314139Y-72801270D01*
X99311006Y-72804402D01*
X99310999Y-72804409D01*
X93114141Y-79001267D01*
X93114138Y-79001271D01*
X93103267Y-79017543D01*
X93103263Y-79017549D01*
X93045688Y-79103714D01*
X93045686Y-79103716D01*
X93045686Y-79103718D01*
X93045685Y-79103719D01*
X92998540Y-79217538D01*
X92998535Y-79217554D01*
X92980647Y-79307488D01*
X92980647Y-79307489D01*
X92974500Y-79338391D01*
X92974500Y-99815817D01*
X92998535Y-99936650D01*
X92998540Y-99936667D01*
X93045685Y-100050486D01*
X93045687Y-100050489D01*
X93045688Y-100050492D01*
X93079915Y-100101715D01*
X93114142Y-100152939D01*
X93201267Y-100240064D01*
X93201270Y-100240066D01*
X93208554Y-100247350D01*
X96192796Y-103231592D01*
X96226281Y-103292915D01*
X96221297Y-103362607D01*
X96182461Y-103414483D01*
X96182836Y-103414940D01*
X96180979Y-103416463D01*
X96179425Y-103418540D01*
X96177636Y-103419207D01*
X96137500Y-103452146D01*
X96137500Y-104462882D01*
X96087054Y-104412436D01*
X96012945Y-104369649D01*
X95930287Y-104347500D01*
X95844713Y-104347500D01*
X95762055Y-104369649D01*
X95687946Y-104412436D01*
X95637500Y-104462882D01*
X95637500Y-103452146D01*
X95637499Y-103452145D01*
X95588522Y-103461888D01*
X95588515Y-103461890D01*
X95401986Y-103539152D01*
X95401973Y-103539159D01*
X95234100Y-103651329D01*
X95234096Y-103651332D01*
X95091332Y-103794096D01*
X95091329Y-103794100D01*
X94979159Y-103961973D01*
X94979152Y-103961986D01*
X94901890Y-104148516D01*
X94901887Y-104148525D01*
X94862500Y-104346541D01*
X94862500Y-104722500D01*
X95562500Y-104722500D01*
X95562500Y-105222500D01*
X94862500Y-105222500D01*
X94862500Y-105598458D01*
X94901887Y-105796474D01*
X94901890Y-105796483D01*
X94979152Y-105983013D01*
X94979159Y-105983026D01*
X95091329Y-106150899D01*
X95091332Y-106150903D01*
X95234096Y-106293667D01*
X95234100Y-106293670D01*
X95401973Y-106405840D01*
X95401986Y-106405847D01*
X95588516Y-106483109D01*
X95588525Y-106483112D01*
X95637500Y-106492853D01*
X95637500Y-105482118D01*
X95687946Y-105532564D01*
X95762055Y-105575351D01*
X95844713Y-105597500D01*
X95930287Y-105597500D01*
X96012945Y-105575351D01*
X96087054Y-105532564D01*
X96137500Y-105482118D01*
X96137500Y-106492852D01*
X96186474Y-106483112D01*
X96186483Y-106483109D01*
X96373013Y-106405847D01*
X96373026Y-106405840D01*
X96540899Y-106293670D01*
X96540903Y-106293667D01*
X96683667Y-106150903D01*
X96683670Y-106150899D01*
X96795840Y-105983026D01*
X96795847Y-105983013D01*
X96873109Y-105796483D01*
X96873112Y-105796474D01*
X96912499Y-105598458D01*
X96912500Y-105598455D01*
X96912500Y-105222500D01*
X96212500Y-105222500D01*
X96212500Y-104722500D01*
X96912500Y-104722500D01*
X96912500Y-104346545D01*
X96912499Y-104346541D01*
X96873112Y-104148525D01*
X96873109Y-104148516D01*
X96795847Y-103961986D01*
X96795840Y-103961973D01*
X96699901Y-103818391D01*
X96679023Y-103751714D01*
X96697507Y-103684333D01*
X96749486Y-103637643D01*
X96803003Y-103625500D01*
X103511997Y-103625500D01*
X103579036Y-103645185D01*
X103624791Y-103697989D01*
X103634735Y-103767147D01*
X103615099Y-103818391D01*
X103519159Y-103961973D01*
X103519152Y-103961986D01*
X103441890Y-104148516D01*
X103441887Y-104148525D01*
X103402500Y-104346541D01*
X103402500Y-104722500D01*
X104102500Y-104722500D01*
X104102500Y-105222500D01*
X103402500Y-105222500D01*
X103402500Y-105598458D01*
X103441887Y-105796474D01*
X103441890Y-105796483D01*
X103519152Y-105983013D01*
X103519159Y-105983026D01*
X103631329Y-106150899D01*
X103631332Y-106150903D01*
X103774096Y-106293667D01*
X103774100Y-106293670D01*
X103941973Y-106405840D01*
X103941986Y-106405847D01*
X104128516Y-106483109D01*
X104128525Y-106483112D01*
X104177500Y-106492853D01*
X104177500Y-105482118D01*
X104227946Y-105532564D01*
X104302055Y-105575351D01*
X104384713Y-105597500D01*
X104470287Y-105597500D01*
X104552945Y-105575351D01*
X104627054Y-105532564D01*
X104677500Y-105482118D01*
X104677500Y-106492852D01*
X104726474Y-106483112D01*
X104726483Y-106483109D01*
X104913013Y-106405847D01*
X104913026Y-106405840D01*
X105080899Y-106293670D01*
X105080903Y-106293667D01*
X105223667Y-106150903D01*
X105223670Y-106150899D01*
X105335840Y-105983026D01*
X105335847Y-105983013D01*
X105413109Y-105796483D01*
X105413112Y-105796474D01*
X105452499Y-105598458D01*
X105452500Y-105598455D01*
X105452500Y-105222500D01*
X104752500Y-105222500D01*
X104752500Y-104722500D01*
X105452500Y-104722500D01*
X105452500Y-104346545D01*
X105452499Y-104346541D01*
X105413112Y-104148525D01*
X105413109Y-104148516D01*
X105335847Y-103961986D01*
X105335840Y-103961973D01*
X105239901Y-103818391D01*
X105219023Y-103751714D01*
X105237507Y-103684333D01*
X105289486Y-103637643D01*
X105343003Y-103625500D01*
X111489548Y-103625500D01*
X111556587Y-103645185D01*
X111577229Y-103661819D01*
X116711016Y-108795606D01*
X116711045Y-108795637D01*
X116801263Y-108885855D01*
X116801267Y-108885858D01*
X116903707Y-108954307D01*
X116903711Y-108954309D01*
X116903714Y-108954311D01*
X117017548Y-109001463D01*
X117077971Y-109013481D01*
X117138393Y-109025500D01*
X136061607Y-109025500D01*
X136122029Y-109013481D01*
X136182452Y-109001463D01*
X136215792Y-108987652D01*
X136296286Y-108954312D01*
X136347509Y-108920084D01*
X136398733Y-108885858D01*
X136485858Y-108798733D01*
X136485859Y-108798731D01*
X136492925Y-108791665D01*
X136492928Y-108791661D01*
X145402687Y-99881902D01*
X154099500Y-99881902D01*
X154099500Y-100118097D01*
X154136446Y-100351368D01*
X154209433Y-100575996D01*
X154235931Y-100628000D01*
X154316657Y-100786433D01*
X154455483Y-100977510D01*
X154622490Y-101144517D01*
X154813567Y-101283343D01*
X154912991Y-101334002D01*
X155024003Y-101390566D01*
X155024005Y-101390566D01*
X155024008Y-101390568D01*
X155117357Y-101420899D01*
X155248631Y-101463553D01*
X155481903Y-101500500D01*
X155481908Y-101500500D01*
X155718097Y-101500500D01*
X155951368Y-101463553D01*
X156175992Y-101390568D01*
X156386433Y-101283343D01*
X156577510Y-101144517D01*
X156744517Y-100977510D01*
X156883343Y-100786433D01*
X156990568Y-100575992D01*
X157063553Y-100351368D01*
X157080796Y-100242500D01*
X157100500Y-100118097D01*
X157100500Y-99881902D01*
X157063553Y-99648631D01*
X156993651Y-99433497D01*
X156990568Y-99424008D01*
X156990566Y-99424005D01*
X156990566Y-99424003D01*
X156883342Y-99213566D01*
X156744517Y-99022490D01*
X156577510Y-98855483D01*
X156386433Y-98716657D01*
X156375470Y-98711071D01*
X156175996Y-98609433D01*
X155951368Y-98536446D01*
X155718097Y-98499500D01*
X155718092Y-98499500D01*
X155481908Y-98499500D01*
X155481903Y-98499500D01*
X155248631Y-98536446D01*
X155024003Y-98609433D01*
X154813566Y-98716657D01*
X154719591Y-98784935D01*
X154622490Y-98855483D01*
X154622488Y-98855485D01*
X154622487Y-98855485D01*
X154455485Y-99022487D01*
X154455485Y-99022488D01*
X154455483Y-99022490D01*
X154420275Y-99070950D01*
X154316657Y-99213566D01*
X154209433Y-99424003D01*
X154136446Y-99648631D01*
X154099500Y-99881902D01*
X145402687Y-99881902D01*
X165598729Y-79685860D01*
X165598733Y-79685858D01*
X165685858Y-79598733D01*
X165720084Y-79547509D01*
X165754312Y-79496286D01*
X165801463Y-79382451D01*
X165825500Y-79261607D01*
X165825500Y-79138393D01*
X165825500Y-59542350D01*
X165845185Y-59475311D01*
X165846398Y-59473459D01*
X165886006Y-59414181D01*
X165909394Y-59379179D01*
X165969737Y-59233497D01*
X166000500Y-59078842D01*
X166000500Y-58921158D01*
X166000500Y-58921155D01*
X166000499Y-58921153D01*
X165978440Y-58810256D01*
X165969737Y-58766503D01*
X165936333Y-58685858D01*
X165909397Y-58620827D01*
X165909390Y-58620814D01*
X165821789Y-58489711D01*
X165821786Y-58489707D01*
X165710292Y-58378213D01*
X165710288Y-58378210D01*
X165579185Y-58290609D01*
X165579172Y-58290602D01*
X165433501Y-58230264D01*
X165433489Y-58230261D01*
X165278845Y-58199500D01*
X165278842Y-58199500D01*
X165121158Y-58199500D01*
X165121155Y-58199500D01*
X164966510Y-58230261D01*
X164966498Y-58230264D01*
X164820827Y-58290602D01*
X164820814Y-58290609D01*
X164689711Y-58378210D01*
X164689707Y-58378213D01*
X164578213Y-58489707D01*
X164578210Y-58489711D01*
X164490609Y-58620814D01*
X164490602Y-58620827D01*
X164430264Y-58766498D01*
X164430261Y-58766510D01*
X164399500Y-58921153D01*
X164399500Y-59078846D01*
X164430261Y-59233489D01*
X164430264Y-59233501D01*
X164490602Y-59379172D01*
X164490609Y-59379184D01*
X164553602Y-59473459D01*
X164574480Y-59540136D01*
X164574500Y-59542350D01*
X164574500Y-78889548D01*
X164554815Y-78956587D01*
X164538181Y-78977229D01*
X135777229Y-107738181D01*
X135715906Y-107771666D01*
X135689548Y-107774500D01*
X117510452Y-107774500D01*
X117443413Y-107754815D01*
X117422771Y-107738181D01*
X112293150Y-102608560D01*
X112285860Y-102601270D01*
X112285858Y-102601267D01*
X112198733Y-102514142D01*
X112147509Y-102479915D01*
X112096286Y-102445688D01*
X112096283Y-102445686D01*
X112096280Y-102445685D01*
X112022603Y-102415168D01*
X112022601Y-102415167D01*
X112015792Y-102412347D01*
X111982452Y-102398537D01*
X111922029Y-102386518D01*
X111917306Y-102385578D01*
X111917304Y-102385578D01*
X111861610Y-102374500D01*
X111861607Y-102374500D01*
X111861606Y-102374500D01*
X97156246Y-102374500D01*
X97089207Y-102354815D01*
X97068565Y-102338181D01*
X96499766Y-101769382D01*
X96466281Y-101708059D01*
X96471265Y-101638367D01*
X96513137Y-101582434D01*
X96518557Y-101578598D01*
X96540905Y-101563665D01*
X96683667Y-101420903D01*
X96683670Y-101420899D01*
X96795840Y-101253026D01*
X96795847Y-101253013D01*
X96873109Y-101066483D01*
X96873112Y-101066474D01*
X96912499Y-100868458D01*
X96912500Y-100868455D01*
X96912500Y-100424296D01*
X96932185Y-100357257D01*
X96984989Y-100311502D01*
X97054147Y-100301558D01*
X97117703Y-100330583D01*
X97124181Y-100336615D01*
X97231271Y-100443705D01*
X97231279Y-100443711D01*
X97366476Y-100534047D01*
X97366480Y-100534049D01*
X97490181Y-100585287D01*
X97516711Y-100596276D01*
X97516715Y-100596276D01*
X97516716Y-100596277D01*
X97676192Y-100628000D01*
X97676195Y-100628000D01*
X97838807Y-100628000D01*
X97946098Y-100606657D01*
X97998289Y-100596276D01*
X98110048Y-100549983D01*
X98179516Y-100542515D01*
X98204949Y-100549982D01*
X98316711Y-100596276D01*
X98316715Y-100596276D01*
X98316716Y-100596277D01*
X98476192Y-100628000D01*
X98476195Y-100628000D01*
X98638807Y-100628000D01*
X98746098Y-100606657D01*
X98798289Y-100596276D01*
X98910048Y-100549983D01*
X98979516Y-100542515D01*
X99004949Y-100549982D01*
X99116711Y-100596276D01*
X99116715Y-100596276D01*
X99116716Y-100596277D01*
X99276192Y-100628000D01*
X99276195Y-100628000D01*
X99438807Y-100628000D01*
X99546098Y-100606657D01*
X99598289Y-100596276D01*
X99748521Y-100534048D01*
X99748523Y-100534047D01*
X99815669Y-100489180D01*
X99883725Y-100443708D01*
X99998708Y-100328725D01*
X100054398Y-100245377D01*
X100108009Y-100200574D01*
X100177334Y-100191866D01*
X100240362Y-100222020D01*
X100260599Y-100245375D01*
X100298140Y-100301558D01*
X100316293Y-100328727D01*
X100431271Y-100443705D01*
X100431279Y-100443711D01*
X100566476Y-100534047D01*
X100566480Y-100534049D01*
X100690181Y-100585287D01*
X100716711Y-100596276D01*
X100716715Y-100596276D01*
X100716716Y-100596277D01*
X100876192Y-100628000D01*
X100876195Y-100628000D01*
X101038807Y-100628000D01*
X101146098Y-100606657D01*
X101198289Y-100596276D01*
X101310048Y-100549983D01*
X101379516Y-100542515D01*
X101404949Y-100549982D01*
X101516711Y-100596276D01*
X101516715Y-100596276D01*
X101516716Y-100596277D01*
X101676192Y-100628000D01*
X101676195Y-100628000D01*
X101838807Y-100628000D01*
X101946098Y-100606657D01*
X101998289Y-100596276D01*
X102110048Y-100549983D01*
X102179516Y-100542515D01*
X102204949Y-100549982D01*
X102316711Y-100596276D01*
X102316715Y-100596276D01*
X102316716Y-100596277D01*
X102476192Y-100628000D01*
X102476195Y-100628000D01*
X102638807Y-100628000D01*
X102746098Y-100606657D01*
X102798289Y-100596276D01*
X102948521Y-100534048D01*
X102948523Y-100534047D01*
X103015669Y-100489180D01*
X103083725Y-100443708D01*
X103111983Y-100415450D01*
X103190819Y-100336615D01*
X103252142Y-100303130D01*
X103321834Y-100308114D01*
X103377767Y-100349986D01*
X103402184Y-100415450D01*
X103402500Y-100424296D01*
X103402500Y-100868458D01*
X103441887Y-101066474D01*
X103441890Y-101066483D01*
X103519152Y-101253013D01*
X103519159Y-101253026D01*
X103631329Y-101420899D01*
X103631332Y-101420903D01*
X103774096Y-101563667D01*
X103774100Y-101563670D01*
X103941973Y-101675840D01*
X103941986Y-101675847D01*
X104128516Y-101753109D01*
X104128525Y-101753112D01*
X104177500Y-101762853D01*
X104177500Y-100752118D01*
X104227946Y-100802564D01*
X104302055Y-100845351D01*
X104384713Y-100867500D01*
X104470287Y-100867500D01*
X104552945Y-100845351D01*
X104627054Y-100802564D01*
X104677500Y-100752118D01*
X104677500Y-101762852D01*
X104726474Y-101753112D01*
X104726483Y-101753109D01*
X104913013Y-101675847D01*
X104913026Y-101675840D01*
X105080899Y-101563670D01*
X105080903Y-101563667D01*
X105223667Y-101420903D01*
X105223670Y-101420899D01*
X105335840Y-101253026D01*
X105335847Y-101253013D01*
X105413109Y-101066483D01*
X105413112Y-101066474D01*
X105452499Y-100868458D01*
X105452500Y-100868455D01*
X105452500Y-100492500D01*
X104752500Y-100492500D01*
X104752500Y-99992500D01*
X105452500Y-99992500D01*
X105452500Y-99616545D01*
X105452499Y-99616541D01*
X105413112Y-99418525D01*
X105413109Y-99418516D01*
X105335847Y-99231986D01*
X105335840Y-99231973D01*
X105223670Y-99064100D01*
X105223667Y-99064096D01*
X105080903Y-98921332D01*
X105080899Y-98921329D01*
X104913026Y-98809159D01*
X104913013Y-98809152D01*
X104726484Y-98731890D01*
X104726477Y-98731888D01*
X104677500Y-98722145D01*
X104677500Y-99732882D01*
X104627054Y-99682436D01*
X104552945Y-99639649D01*
X104470287Y-99617500D01*
X104384713Y-99617500D01*
X104302055Y-99639649D01*
X104227946Y-99682436D01*
X104177500Y-99732882D01*
X104177500Y-98722146D01*
X104177499Y-98722145D01*
X104128522Y-98731888D01*
X104128515Y-98731890D01*
X103941986Y-98809152D01*
X103941975Y-98809158D01*
X103904016Y-98834522D01*
X103837338Y-98855399D01*
X103769958Y-98836914D01*
X103723269Y-98784935D01*
X103720565Y-98778872D01*
X103692480Y-98711071D01*
X103250270Y-99153282D01*
X103222803Y-99168280D01*
X103196289Y-99184934D01*
X103192378Y-99184893D01*
X103188947Y-99186767D01*
X103162767Y-99184894D01*
X103182500Y-99137255D01*
X103182500Y-99047745D01*
X103148246Y-98965048D01*
X103084952Y-98901754D01*
X103002255Y-98867500D01*
X102912745Y-98867500D01*
X102838039Y-98898443D01*
X102839903Y-98872389D01*
X102868404Y-98828042D01*
X103338927Y-98357518D01*
X103198144Y-98299204D01*
X103198136Y-98299202D01*
X103038759Y-98267500D01*
X102876240Y-98267500D01*
X102716863Y-98299202D01*
X102716851Y-98299205D01*
X102604952Y-98345555D01*
X102535483Y-98353024D01*
X102510048Y-98345555D01*
X102398148Y-98299205D01*
X102398136Y-98299202D01*
X102238759Y-98267500D01*
X102076240Y-98267500D01*
X101916863Y-98299202D01*
X101916860Y-98299203D01*
X101805603Y-98345286D01*
X101736133Y-98352754D01*
X101710699Y-98345285D01*
X101598293Y-98298725D01*
X101598283Y-98298722D01*
X101438807Y-98267000D01*
X101438805Y-98267000D01*
X101307000Y-98267000D01*
X101239961Y-98247315D01*
X101194206Y-98194511D01*
X101183000Y-98143000D01*
X101183000Y-96958968D01*
X101202685Y-96891929D01*
X101238110Y-96855866D01*
X101291556Y-96820153D01*
X101352938Y-96779140D01*
X101464438Y-96667640D01*
X101552043Y-96536530D01*
X101612386Y-96390848D01*
X101632907Y-96287684D01*
X101665292Y-96225773D01*
X101726007Y-96191199D01*
X101730333Y-96190258D01*
X101762331Y-96183892D01*
X101833497Y-96169737D01*
X101979179Y-96109394D01*
X102110289Y-96021789D01*
X102221789Y-95910289D01*
X102309394Y-95779179D01*
X102369737Y-95633497D01*
X102400500Y-95478842D01*
X102400500Y-95321158D01*
X102400500Y-95321155D01*
X102400499Y-95321153D01*
X102383064Y-95233501D01*
X102369737Y-95166503D01*
X102337929Y-95089711D01*
X102309397Y-95020827D01*
X102309390Y-95020814D01*
X102221789Y-94889711D01*
X102221786Y-94889707D01*
X102110292Y-94778213D01*
X102110288Y-94778210D01*
X101979185Y-94690609D01*
X101979172Y-94690602D01*
X101833501Y-94630264D01*
X101833489Y-94630261D01*
X101722286Y-94608141D01*
X101660375Y-94575756D01*
X101658796Y-94574205D01*
X100495822Y-93411232D01*
X100485859Y-93401269D01*
X100485858Y-93401267D01*
X100398733Y-93314142D01*
X100347509Y-93279915D01*
X100296286Y-93245688D01*
X100296283Y-93245686D01*
X100296280Y-93245685D01*
X100223256Y-93215438D01*
X100223251Y-93215436D01*
X100215792Y-93212347D01*
X100182452Y-93198537D01*
X100101580Y-93182451D01*
X100097568Y-93181653D01*
X100097557Y-93181650D01*
X100068851Y-93175941D01*
X100061607Y-93174500D01*
X100061606Y-93174500D01*
X97661606Y-93174500D01*
X97538393Y-93174500D01*
X97518406Y-93178475D01*
X97498419Y-93182451D01*
X97498418Y-93182450D01*
X97417555Y-93198535D01*
X97417547Y-93198537D01*
X97303716Y-93245687D01*
X97303707Y-93245692D01*
X97201268Y-93314140D01*
X97157705Y-93357703D01*
X97114142Y-93401267D01*
X97114139Y-93401270D01*
X96341203Y-94174205D01*
X96279880Y-94207690D01*
X96277714Y-94208141D01*
X96166508Y-94230261D01*
X96166498Y-94230264D01*
X96020827Y-94290602D01*
X96020814Y-94290609D01*
X95889711Y-94378210D01*
X95889707Y-94378213D01*
X95778213Y-94489707D01*
X95778210Y-94489711D01*
X95690609Y-94620814D01*
X95690602Y-94620827D01*
X95630264Y-94766498D01*
X95630261Y-94766510D01*
X95599500Y-94921153D01*
X95599500Y-95078846D01*
X95630261Y-95233489D01*
X95630264Y-95233501D01*
X95690602Y-95379172D01*
X95690609Y-95379185D01*
X95778210Y-95510288D01*
X95778213Y-95510292D01*
X95889707Y-95621786D01*
X95889711Y-95621789D01*
X96020814Y-95709390D01*
X96020827Y-95709397D01*
X96166498Y-95769735D01*
X96166503Y-95769737D01*
X96321153Y-95800499D01*
X96321156Y-95800500D01*
X96321158Y-95800500D01*
X96478844Y-95800500D01*
X96478845Y-95800499D01*
X96633497Y-95769737D01*
X96779179Y-95709394D01*
X96910289Y-95621789D01*
X97021789Y-95510289D01*
X97109394Y-95379179D01*
X97169737Y-95233497D01*
X97191858Y-95122282D01*
X97224240Y-95060375D01*
X97225733Y-95058855D01*
X97762820Y-94521768D01*
X97824142Y-94488285D01*
X97893834Y-94493269D01*
X97949767Y-94535141D01*
X97974184Y-94600605D01*
X97974500Y-94609451D01*
X97974500Y-95228312D01*
X97998535Y-95349148D01*
X97998537Y-95349154D01*
X98005723Y-95366503D01*
X98045688Y-95462988D01*
X98079915Y-95514211D01*
X98084068Y-95520427D01*
X98084069Y-95520428D01*
X98114141Y-95565435D01*
X98118007Y-95570145D01*
X98116495Y-95571385D01*
X98145661Y-95624771D01*
X98148500Y-95651155D01*
X98148500Y-95797691D01*
X98148500Y-95920905D01*
X98159240Y-95974900D01*
X98172537Y-96041750D01*
X98186347Y-96075090D01*
X98189260Y-96082124D01*
X98189262Y-96082129D01*
X98219685Y-96155579D01*
X98219686Y-96155581D01*
X98219687Y-96155583D01*
X98219688Y-96155584D01*
X98233639Y-96176462D01*
X98233640Y-96176465D01*
X98233641Y-96176465D01*
X98288141Y-96258030D01*
X98288144Y-96258034D01*
X98379586Y-96349476D01*
X98379608Y-96349496D01*
X99095681Y-97065569D01*
X99129166Y-97126892D01*
X99132000Y-97153250D01*
X99132000Y-98143000D01*
X99112315Y-98210039D01*
X99059511Y-98255794D01*
X99008000Y-98267000D01*
X98876193Y-98267000D01*
X98716716Y-98298722D01*
X98716715Y-98298723D01*
X98716714Y-98298723D01*
X98716711Y-98298724D01*
X98651549Y-98325714D01*
X98604299Y-98345286D01*
X98534829Y-98352754D01*
X98509395Y-98345285D01*
X98398148Y-98299205D01*
X98398136Y-98299202D01*
X98238759Y-98267500D01*
X98076240Y-98267500D01*
X97916863Y-98299202D01*
X97916851Y-98299205D01*
X97804952Y-98345555D01*
X97735483Y-98353024D01*
X97710048Y-98345555D01*
X97598148Y-98299205D01*
X97598136Y-98299202D01*
X97438759Y-98267500D01*
X97276240Y-98267500D01*
X97116863Y-98299201D01*
X97116854Y-98299204D01*
X96976071Y-98357518D01*
X97446595Y-98828041D01*
X97450933Y-98835986D01*
X97458182Y-98841413D01*
X97467416Y-98866172D01*
X97480080Y-98889364D01*
X97479434Y-98898394D01*
X97479907Y-98899664D01*
X97402255Y-98867500D01*
X97312745Y-98867500D01*
X97230048Y-98901754D01*
X97166754Y-98965048D01*
X97132500Y-99047745D01*
X97132500Y-99137255D01*
X97152852Y-99186390D01*
X97097877Y-99176967D01*
X97064729Y-99153283D01*
X96622518Y-98711071D01*
X96594434Y-98778872D01*
X96550593Y-98833275D01*
X96484299Y-98855340D01*
X96416599Y-98838061D01*
X96410982Y-98834521D01*
X96373026Y-98809159D01*
X96373013Y-98809152D01*
X96186484Y-98731890D01*
X96186477Y-98731888D01*
X96137500Y-98722145D01*
X96137500Y-99732882D01*
X96087054Y-99682436D01*
X96012945Y-99639649D01*
X95930287Y-99617500D01*
X95844713Y-99617500D01*
X95762055Y-99639649D01*
X95687946Y-99682436D01*
X95637500Y-99732882D01*
X95637500Y-98722146D01*
X95637499Y-98722145D01*
X95588522Y-98731888D01*
X95588515Y-98731890D01*
X95401986Y-98809152D01*
X95401973Y-98809159D01*
X95234100Y-98921329D01*
X95234096Y-98921332D01*
X95091332Y-99064096D01*
X95091329Y-99064100D01*
X94979159Y-99231973D01*
X94979152Y-99231986D01*
X94901890Y-99418516D01*
X94901887Y-99418525D01*
X94862500Y-99616541D01*
X94862500Y-99832754D01*
X94842815Y-99899793D01*
X94790011Y-99945548D01*
X94720853Y-99955492D01*
X94657297Y-99926467D01*
X94650819Y-99920435D01*
X94261819Y-99531435D01*
X94228334Y-99470112D01*
X94225500Y-99443754D01*
X94225500Y-79710452D01*
X94245185Y-79643413D01*
X94261819Y-79622771D01*
X100022771Y-73861819D01*
X100084094Y-73828334D01*
X100110452Y-73825500D01*
X107257650Y-73825500D01*
X107324689Y-73845185D01*
X107326541Y-73846398D01*
X107420821Y-73909394D01*
X107420823Y-73909395D01*
X107420827Y-73909397D01*
X107566498Y-73969735D01*
X107566503Y-73969737D01*
X107712260Y-73998730D01*
X107721153Y-74000499D01*
X107721156Y-74000500D01*
X107721158Y-74000500D01*
X107878844Y-74000500D01*
X107878845Y-74000499D01*
X108033497Y-73969737D01*
X108179179Y-73909394D01*
X108310289Y-73821789D01*
X108421789Y-73710289D01*
X108509394Y-73579179D01*
X108569737Y-73433497D01*
X108600500Y-73278842D01*
X108600500Y-73121158D01*
X108600500Y-73121155D01*
X108599903Y-73115093D01*
X108601461Y-73114939D01*
X108606996Y-73052974D01*
X108649850Y-72997789D01*
X108715736Y-72974534D01*
X108783735Y-72990591D01*
X108810074Y-73010674D01*
X115562219Y-79762819D01*
X115595704Y-79824142D01*
X115590720Y-79893834D01*
X115548848Y-79949767D01*
X115483384Y-79974184D01*
X115474538Y-79974500D01*
X106267741Y-79974500D01*
X106267721Y-79974499D01*
X106261607Y-79974499D01*
X106138394Y-79974499D01*
X106037597Y-79994548D01*
X106037592Y-79994548D01*
X106017549Y-79998536D01*
X106017547Y-79998536D01*
X105970397Y-80018067D01*
X105903719Y-80045685D01*
X105903717Y-80045686D01*
X105801266Y-80114141D01*
X105801263Y-80114144D01*
X103577229Y-82338181D01*
X103515906Y-82371666D01*
X103489548Y-82374500D01*
X99138388Y-82374500D01*
X99017555Y-82398535D01*
X99017547Y-82398537D01*
X98903716Y-82445687D01*
X98810273Y-82508125D01*
X98810271Y-82508126D01*
X98801268Y-82514140D01*
X98441203Y-82874205D01*
X98424607Y-82883267D01*
X98410997Y-82896400D01*
X98381501Y-82906804D01*
X98379880Y-82907690D01*
X98377713Y-82908141D01*
X98337011Y-82916237D01*
X98267419Y-82910010D01*
X98212242Y-82867146D01*
X98188998Y-82801257D01*
X98205066Y-82733260D01*
X98218585Y-82715541D01*
X98217924Y-82714999D01*
X98221784Y-82710293D01*
X98221789Y-82710289D01*
X98309394Y-82579179D01*
X98369737Y-82433497D01*
X98400500Y-82278842D01*
X98400500Y-82121158D01*
X98400500Y-82121155D01*
X98400499Y-82121153D01*
X98369738Y-81966510D01*
X98369737Y-81966503D01*
X98309394Y-81820821D01*
X98246397Y-81726539D01*
X98225520Y-81659863D01*
X98225500Y-81657650D01*
X98225500Y-80310452D01*
X98245185Y-80243413D01*
X98261819Y-80222771D01*
X99822771Y-78661819D01*
X99884094Y-78628334D01*
X99910452Y-78625500D01*
X108457650Y-78625500D01*
X108524689Y-78645185D01*
X108526541Y-78646398D01*
X108620821Y-78709394D01*
X108620823Y-78709395D01*
X108620827Y-78709397D01*
X108766498Y-78769735D01*
X108766503Y-78769737D01*
X108921153Y-78800499D01*
X108921156Y-78800500D01*
X108921158Y-78800500D01*
X109078844Y-78800500D01*
X109078845Y-78800499D01*
X109233497Y-78769737D01*
X109379179Y-78709394D01*
X109510289Y-78621789D01*
X109621789Y-78510289D01*
X109709394Y-78379179D01*
X109769737Y-78233497D01*
X109800500Y-78078842D01*
X109800500Y-77921158D01*
X109800500Y-77921155D01*
X109800499Y-77921153D01*
X109769738Y-77766510D01*
X109769737Y-77766503D01*
X109769735Y-77766498D01*
X109709397Y-77620827D01*
X109709390Y-77620814D01*
X109621789Y-77489711D01*
X109621786Y-77489707D01*
X109510292Y-77378213D01*
X109510288Y-77378210D01*
X109379185Y-77290609D01*
X109379172Y-77290602D01*
X109233501Y-77230264D01*
X109233489Y-77230261D01*
X109078845Y-77199500D01*
X109078842Y-77199500D01*
X108921158Y-77199500D01*
X108921155Y-77199500D01*
X108766510Y-77230261D01*
X108766498Y-77230264D01*
X108620827Y-77290602D01*
X108620815Y-77290609D01*
X108526541Y-77353602D01*
X108459864Y-77374480D01*
X108457650Y-77374500D01*
X100610873Y-77374500D01*
X100543834Y-77354815D01*
X100498079Y-77302011D01*
X100488135Y-77232853D01*
X100506621Y-77184607D01*
X100506521Y-77184554D01*
X100506950Y-77183750D01*
X100507771Y-77181609D01*
X100509390Y-77179185D01*
X100509390Y-77179184D01*
X100509394Y-77179179D01*
X100569737Y-77033497D01*
X100600500Y-76878842D01*
X100600500Y-76721158D01*
X100600500Y-76721155D01*
X100600499Y-76721153D01*
X100569738Y-76566510D01*
X100569738Y-76566508D01*
X100569737Y-76566503D01*
X100546520Y-76510452D01*
X100509397Y-76420827D01*
X100509390Y-76420814D01*
X100421789Y-76289711D01*
X100421786Y-76289707D01*
X100310292Y-76178213D01*
X100310288Y-76178210D01*
X100179185Y-76090609D01*
X100179172Y-76090602D01*
X100033501Y-76030264D01*
X100033489Y-76030261D01*
X99878845Y-75999500D01*
X99878842Y-75999500D01*
X99721158Y-75999500D01*
X99721155Y-75999500D01*
X99566510Y-76030261D01*
X99566498Y-76030264D01*
X99420827Y-76090602D01*
X99420814Y-76090609D01*
X99289711Y-76178210D01*
X99289707Y-76178213D01*
X99178213Y-76289707D01*
X99178210Y-76289711D01*
X99090609Y-76420814D01*
X99090602Y-76420827D01*
X99030264Y-76566498D01*
X99030261Y-76566508D01*
X99008141Y-76677714D01*
X98975756Y-76739625D01*
X98974205Y-76741203D01*
X97636567Y-78078842D01*
X96407925Y-79307484D01*
X96407922Y-79307487D01*
X96377018Y-79338391D01*
X96320797Y-79394611D01*
X96290549Y-79439881D01*
X96286669Y-79445688D01*
X96252343Y-79497059D01*
X96219002Y-79577552D01*
X96217016Y-79582347D01*
X96205192Y-79610890D01*
X96205190Y-79610898D01*
X96181155Y-79731734D01*
X96181155Y-84850995D01*
X96161470Y-84918034D01*
X96160257Y-84919886D01*
X96097264Y-85014160D01*
X96097257Y-85014173D01*
X96036919Y-85159843D01*
X96036916Y-85159855D01*
X96006155Y-85314498D01*
X96006155Y-85472191D01*
X96036916Y-85626834D01*
X96036919Y-85626846D01*
X96097257Y-85772517D01*
X96097264Y-85772530D01*
X96184865Y-85903633D01*
X96184868Y-85903637D01*
X96296362Y-86015131D01*
X96296366Y-86015134D01*
X96427469Y-86102735D01*
X96427482Y-86102742D01*
X96573153Y-86163080D01*
X96573158Y-86163082D01*
X96727808Y-86193844D01*
X96727811Y-86193845D01*
X96727813Y-86193845D01*
X96885499Y-86193845D01*
X96885500Y-86193844D01*
X97040152Y-86163082D01*
X97185834Y-86102739D01*
X97316944Y-86015134D01*
X97428444Y-85903634D01*
X97516049Y-85772524D01*
X97576392Y-85626842D01*
X97607155Y-85472187D01*
X97607155Y-85314503D01*
X97607155Y-85314500D01*
X97607154Y-85314498D01*
X97576393Y-85159855D01*
X97576392Y-85159848D01*
X97516049Y-85014166D01*
X97453052Y-84919884D01*
X97432175Y-84853208D01*
X97432155Y-84850995D01*
X97432155Y-83124500D01*
X97451840Y-83057461D01*
X97504644Y-83011706D01*
X97556155Y-83000500D01*
X97678843Y-83000500D01*
X97699670Y-82996356D01*
X97762988Y-82983762D01*
X97832578Y-82989989D01*
X97887756Y-83032851D01*
X97911001Y-83098741D01*
X97894934Y-83166738D01*
X97881422Y-83184464D01*
X97882076Y-83185001D01*
X97878210Y-83189711D01*
X97790609Y-83320814D01*
X97790602Y-83320827D01*
X97730264Y-83466498D01*
X97730261Y-83466510D01*
X97699500Y-83621153D01*
X97699500Y-83778846D01*
X97730261Y-83933489D01*
X97730264Y-83933501D01*
X97790602Y-84079172D01*
X97790609Y-84079185D01*
X97878210Y-84210288D01*
X97878213Y-84210292D01*
X97989707Y-84321786D01*
X97989711Y-84321789D01*
X98120814Y-84409390D01*
X98120827Y-84409397D01*
X98266498Y-84469735D01*
X98266503Y-84469737D01*
X98421153Y-84500499D01*
X98421156Y-84500500D01*
X98421158Y-84500500D01*
X98578844Y-84500500D01*
X98578845Y-84500499D01*
X98733497Y-84469737D01*
X98879179Y-84409394D01*
X99010289Y-84321789D01*
X99012313Y-84319764D01*
X99013633Y-84319043D01*
X99014993Y-84317928D01*
X99015204Y-84318185D01*
X99073631Y-84286276D01*
X99143323Y-84291255D01*
X99187680Y-84319759D01*
X99289707Y-84421786D01*
X99289711Y-84421789D01*
X99420814Y-84509390D01*
X99420827Y-84509397D01*
X99497610Y-84541201D01*
X99566503Y-84569737D01*
X99721153Y-84600499D01*
X99721156Y-84600500D01*
X99721158Y-84600500D01*
X99878844Y-84600500D01*
X99878845Y-84600499D01*
X100033497Y-84569737D01*
X100164078Y-84515649D01*
X100179172Y-84509397D01*
X100179172Y-84509396D01*
X100179179Y-84509394D01*
X100310289Y-84421789D01*
X100421789Y-84310289D01*
X100437834Y-84286276D01*
X100441621Y-84280609D01*
X100495233Y-84235804D01*
X100544723Y-84225500D01*
X101907216Y-84225500D01*
X101927431Y-84231435D01*
X101948470Y-84232564D01*
X101960283Y-84241082D01*
X101974255Y-84245185D01*
X101988049Y-84261104D01*
X102005142Y-84273430D01*
X102010475Y-84286985D01*
X102020010Y-84297989D01*
X102023008Y-84318840D01*
X102030723Y-84338449D01*
X102029393Y-84363246D01*
X102029954Y-84367147D01*
X102028833Y-84373692D01*
X102008141Y-84477713D01*
X101975756Y-84539624D01*
X101974207Y-84541201D01*
X101914910Y-84600499D01*
X101914142Y-84601267D01*
X101892607Y-84633497D01*
X101862306Y-84678844D01*
X101845686Y-84703717D01*
X101845685Y-84703719D01*
X101829479Y-84742846D01*
X101806331Y-84798729D01*
X101806332Y-84798730D01*
X101798538Y-84817546D01*
X101798535Y-84817556D01*
X101782875Y-84896287D01*
X101774500Y-84938389D01*
X101774500Y-88857650D01*
X101754815Y-88924689D01*
X101753602Y-88926541D01*
X101690609Y-89020815D01*
X101690602Y-89020828D01*
X101630264Y-89166498D01*
X101630261Y-89166510D01*
X101599500Y-89321153D01*
X101599500Y-89478846D01*
X101630261Y-89633489D01*
X101630264Y-89633501D01*
X101690602Y-89779172D01*
X101690609Y-89779185D01*
X101778210Y-89910288D01*
X101778213Y-89910292D01*
X101889707Y-90021786D01*
X101889711Y-90021789D01*
X102020814Y-90109390D01*
X102020827Y-90109397D01*
X102166498Y-90169735D01*
X102166503Y-90169737D01*
X102321153Y-90200499D01*
X102321156Y-90200500D01*
X102321158Y-90200500D01*
X102478844Y-90200500D01*
X102478845Y-90200499D01*
X102633497Y-90169737D01*
X102779179Y-90109394D01*
X102910289Y-90021789D01*
X103021789Y-89910289D01*
X103109394Y-89779179D01*
X103169737Y-89633497D01*
X103200500Y-89478842D01*
X103200500Y-89321158D01*
X103200500Y-89321155D01*
X103200499Y-89321153D01*
X103184898Y-89242724D01*
X103169737Y-89166503D01*
X103109394Y-89020821D01*
X103046397Y-88926539D01*
X103025520Y-88859863D01*
X103025500Y-88857650D01*
X103025500Y-85455903D01*
X103045185Y-85388864D01*
X103097989Y-85343109D01*
X103101999Y-85341362D01*
X103179179Y-85309394D01*
X103310289Y-85221789D01*
X103421789Y-85110289D01*
X103509394Y-84979179D01*
X103569737Y-84833497D01*
X103600500Y-84678842D01*
X103600500Y-84628443D01*
X103620185Y-84561404D01*
X103672989Y-84515649D01*
X103742147Y-84505705D01*
X103805703Y-84534730D01*
X103812181Y-84540762D01*
X108338181Y-89066762D01*
X108371666Y-89128085D01*
X108374500Y-89154443D01*
X108374500Y-94138393D01*
X108374500Y-94261607D01*
X108386518Y-94322029D01*
X108386518Y-94322030D01*
X108386517Y-94322030D01*
X108397691Y-94378204D01*
X108398534Y-94382443D01*
X108398538Y-94382456D01*
X108445685Y-94496281D01*
X108445688Y-94496286D01*
X108473824Y-94538393D01*
X108514142Y-94598733D01*
X108601267Y-94685858D01*
X108601270Y-94685860D01*
X108608837Y-94693427D01*
X115311016Y-101395606D01*
X115311045Y-101395637D01*
X115401263Y-101485855D01*
X115401267Y-101485858D01*
X115503707Y-101554307D01*
X115503711Y-101554309D01*
X115503714Y-101554311D01*
X115617548Y-101601463D01*
X115677971Y-101613481D01*
X115738393Y-101625500D01*
X126261607Y-101625500D01*
X126322029Y-101613481D01*
X126382452Y-101601463D01*
X126415792Y-101587652D01*
X126496286Y-101554312D01*
X126547509Y-101520084D01*
X126598733Y-101485858D01*
X126685858Y-101398733D01*
X126685858Y-101398731D01*
X126696066Y-101388524D01*
X126696067Y-101388521D01*
X128058798Y-100025791D01*
X128120119Y-99992308D01*
X128122114Y-99991892D01*
X128233497Y-99969737D01*
X128379179Y-99909394D01*
X128510289Y-99821789D01*
X128621789Y-99710289D01*
X128709394Y-99579179D01*
X128769737Y-99433497D01*
X128800500Y-99278842D01*
X128800500Y-99121158D01*
X128800500Y-99121155D01*
X128800499Y-99121153D01*
X128769737Y-98966503D01*
X128759621Y-98942081D01*
X128709397Y-98820827D01*
X128709390Y-98820814D01*
X128621789Y-98689711D01*
X128621786Y-98689707D01*
X128510292Y-98578213D01*
X128510288Y-98578210D01*
X128379185Y-98490609D01*
X128379172Y-98490602D01*
X128233501Y-98430264D01*
X128233489Y-98430261D01*
X128078845Y-98399500D01*
X128078842Y-98399500D01*
X127921158Y-98399500D01*
X127921155Y-98399500D01*
X127766510Y-98430261D01*
X127766498Y-98430264D01*
X127620827Y-98490602D01*
X127620814Y-98490609D01*
X127489711Y-98578210D01*
X127489707Y-98578213D01*
X127378213Y-98689707D01*
X127378210Y-98689711D01*
X127290609Y-98820814D01*
X127290602Y-98820827D01*
X127230264Y-98966498D01*
X127230261Y-98966508D01*
X127208141Y-99077713D01*
X127175756Y-99139624D01*
X127174205Y-99141202D01*
X125977229Y-100338181D01*
X125915906Y-100371666D01*
X125889548Y-100374500D01*
X116110452Y-100374500D01*
X116043413Y-100354815D01*
X116022771Y-100338181D01*
X109661819Y-93977229D01*
X109628334Y-93915906D01*
X109625500Y-93889548D01*
X109625500Y-88782384D01*
X109623931Y-88774499D01*
X109623930Y-88774494D01*
X109613481Y-88721962D01*
X109601463Y-88661539D01*
X109554311Y-88547705D01*
X109554310Y-88547704D01*
X109554307Y-88547698D01*
X109485858Y-88445258D01*
X109485855Y-88445254D01*
X109395637Y-88355036D01*
X109395606Y-88355007D01*
X104450275Y-83409676D01*
X104416790Y-83348353D01*
X104421774Y-83278661D01*
X104450275Y-83234314D01*
X106422772Y-81261819D01*
X106484095Y-81228334D01*
X106510453Y-81225500D01*
X116289548Y-81225500D01*
X116356587Y-81245185D01*
X116377229Y-81261819D01*
X124938181Y-89822771D01*
X124971666Y-89884094D01*
X124974500Y-89910452D01*
X124974500Y-91461611D01*
X124998535Y-91582444D01*
X124998540Y-91582461D01*
X125045685Y-91696280D01*
X125045687Y-91696283D01*
X125045688Y-91696286D01*
X125079915Y-91747509D01*
X125114142Y-91798733D01*
X125201267Y-91885858D01*
X125201269Y-91885859D01*
X125211232Y-91895822D01*
X126374205Y-93058796D01*
X126407690Y-93120119D01*
X126408141Y-93122286D01*
X126430261Y-93233489D01*
X126430264Y-93233501D01*
X126490602Y-93379172D01*
X126490609Y-93379185D01*
X126578210Y-93510288D01*
X126578213Y-93510292D01*
X126689707Y-93621786D01*
X126689711Y-93621789D01*
X126820814Y-93709390D01*
X126820827Y-93709397D01*
X126966498Y-93769735D01*
X126966503Y-93769737D01*
X127121153Y-93800499D01*
X127121156Y-93800500D01*
X127121158Y-93800500D01*
X127278844Y-93800500D01*
X127278845Y-93800499D01*
X127433497Y-93769737D01*
X127579179Y-93709394D01*
X127710289Y-93621789D01*
X127821789Y-93510289D01*
X127909394Y-93379179D01*
X127969737Y-93233497D01*
X128000500Y-93078842D01*
X128000500Y-92921158D01*
X128000500Y-92921155D01*
X128000499Y-92921153D01*
X127969738Y-92766510D01*
X127969737Y-92766503D01*
X127969735Y-92766498D01*
X127909397Y-92620827D01*
X127909390Y-92620814D01*
X127821789Y-92489711D01*
X127821786Y-92489707D01*
X127710292Y-92378213D01*
X127710288Y-92378210D01*
X127579185Y-92290609D01*
X127579172Y-92290602D01*
X127433501Y-92230264D01*
X127433489Y-92230261D01*
X127322286Y-92208141D01*
X127260375Y-92175756D01*
X127258796Y-92174205D01*
X126261819Y-91177228D01*
X126228334Y-91115905D01*
X126225500Y-91089547D01*
X126225500Y-89538393D01*
X126225499Y-89538389D01*
X126201463Y-89417548D01*
X126167656Y-89335931D01*
X126154312Y-89303714D01*
X126113559Y-89242724D01*
X126085858Y-89201267D01*
X126085856Y-89201264D01*
X125995637Y-89111045D01*
X125995606Y-89111016D01*
X124321771Y-87437181D01*
X124288286Y-87375858D01*
X124293270Y-87306166D01*
X124335142Y-87250233D01*
X124400606Y-87225816D01*
X124409452Y-87225500D01*
X126261607Y-87225500D01*
X126322029Y-87213481D01*
X126382452Y-87201463D01*
X126415792Y-87187652D01*
X126496286Y-87154312D01*
X126547509Y-87120084D01*
X126598733Y-87085858D01*
X126685858Y-86998733D01*
X126685859Y-86998731D01*
X126692925Y-86991665D01*
X126692928Y-86991661D01*
X132798729Y-80885860D01*
X132798733Y-80885858D01*
X132885858Y-80798733D01*
X132920084Y-80747509D01*
X132954312Y-80696286D01*
X133001463Y-80582451D01*
X133025500Y-80461607D01*
X133025500Y-80338393D01*
X133025500Y-75310452D01*
X133034143Y-75281015D01*
X133040667Y-75251026D01*
X133044422Y-75246009D01*
X133045185Y-75243413D01*
X133061818Y-75222772D01*
X133115660Y-75168929D01*
X133115665Y-75168925D01*
X133122731Y-75161859D01*
X133122733Y-75161858D01*
X133209858Y-75074733D01*
X133278311Y-74972286D01*
X133325463Y-74858452D01*
X133331363Y-74828788D01*
X133337678Y-74816714D01*
X133339412Y-74803198D01*
X133353554Y-74786363D01*
X133363746Y-74766879D01*
X133376546Y-74758994D01*
X133384354Y-74749701D01*
X133406418Y-74740595D01*
X133416231Y-74734551D01*
X133422427Y-74732628D01*
X133458452Y-74725463D01*
X133491792Y-74711652D01*
X133572286Y-74678312D01*
X133623509Y-74644084D01*
X133674733Y-74609858D01*
X133761858Y-74522733D01*
X133761859Y-74522731D01*
X133768925Y-74515665D01*
X133768928Y-74515661D01*
X134088574Y-74196015D01*
X134149897Y-74162530D01*
X134219589Y-74167514D01*
X134263936Y-74196015D01*
X134289707Y-74221786D01*
X134289711Y-74221789D01*
X134420814Y-74309390D01*
X134420827Y-74309397D01*
X134566498Y-74369735D01*
X134566503Y-74369737D01*
X134721153Y-74400499D01*
X134721156Y-74400500D01*
X134721158Y-74400500D01*
X134878844Y-74400500D01*
X134878845Y-74400499D01*
X135033497Y-74369737D01*
X135167716Y-74314142D01*
X135179172Y-74309397D01*
X135179172Y-74309396D01*
X135179179Y-74309394D01*
X135273459Y-74246398D01*
X135340136Y-74225520D01*
X135342350Y-74225500D01*
X137346905Y-74225500D01*
X137407327Y-74213481D01*
X137467750Y-74201463D01*
X137501090Y-74187652D01*
X137581584Y-74154312D01*
X137647467Y-74110289D01*
X137684031Y-74085858D01*
X137771156Y-73998733D01*
X137771156Y-73998731D01*
X137781364Y-73988524D01*
X137781366Y-73988521D01*
X138231225Y-73538661D01*
X138292546Y-73505178D01*
X138362238Y-73510162D01*
X138406583Y-73538661D01*
X138437610Y-73569688D01*
X138463712Y-73595790D01*
X138594814Y-73683390D01*
X138594827Y-73683397D01*
X138695912Y-73725267D01*
X138740503Y-73743737D01*
X138895153Y-73774499D01*
X138895156Y-73774500D01*
X138895158Y-73774500D01*
X139052844Y-73774500D01*
X139052845Y-73774499D01*
X139207497Y-73743737D01*
X139353179Y-73683394D01*
X139447459Y-73620398D01*
X139514136Y-73599520D01*
X139516350Y-73599500D01*
X142402309Y-73599500D01*
X142462731Y-73587481D01*
X142523154Y-73575463D01*
X142556494Y-73561652D01*
X142636988Y-73528312D01*
X142702871Y-73484289D01*
X142739435Y-73459858D01*
X142826560Y-73372733D01*
X142826561Y-73372731D01*
X142833627Y-73365665D01*
X142833629Y-73365661D01*
X147162821Y-69036470D01*
X147224142Y-69002987D01*
X147293834Y-69007971D01*
X147349767Y-69049843D01*
X147374184Y-69115307D01*
X147374500Y-69124153D01*
X147374500Y-87889547D01*
X147354815Y-87956586D01*
X147338181Y-87977228D01*
X140541203Y-94774205D01*
X140479880Y-94807690D01*
X140477714Y-94808141D01*
X140366508Y-94830261D01*
X140366498Y-94830264D01*
X140220827Y-94890602D01*
X140220814Y-94890609D01*
X140089711Y-94978210D01*
X140089707Y-94978213D01*
X139978213Y-95089707D01*
X139978210Y-95089711D01*
X139890609Y-95220814D01*
X139890602Y-95220827D01*
X139830264Y-95366498D01*
X139830261Y-95366510D01*
X139799500Y-95521153D01*
X139799500Y-95678846D01*
X139830261Y-95833489D01*
X139830264Y-95833501D01*
X139890602Y-95979172D01*
X139890609Y-95979185D01*
X139978210Y-96110288D01*
X139978213Y-96110292D01*
X140089707Y-96221786D01*
X140089711Y-96221789D01*
X140220814Y-96309390D01*
X140220827Y-96309397D01*
X140366498Y-96369735D01*
X140366503Y-96369737D01*
X140472655Y-96390852D01*
X140521153Y-96400499D01*
X140521156Y-96400500D01*
X140521158Y-96400500D01*
X140678844Y-96400500D01*
X140678845Y-96400499D01*
X140833497Y-96369737D01*
X140979179Y-96309394D01*
X141110289Y-96221789D01*
X141221789Y-96110289D01*
X141309394Y-95979179D01*
X141369737Y-95833497D01*
X141391858Y-95722282D01*
X141424240Y-95660375D01*
X141425735Y-95658853D01*
X148485857Y-88598734D01*
X148554311Y-88496286D01*
X148601463Y-88382452D01*
X148625500Y-88261606D01*
X148625500Y-68742350D01*
X148645185Y-68675311D01*
X148646398Y-68673459D01*
X148673105Y-68633489D01*
X148709394Y-68579179D01*
X148769737Y-68433497D01*
X148796429Y-68299309D01*
X148828814Y-68237398D01*
X148889529Y-68202824D01*
X148918046Y-68199500D01*
X158999607Y-68199500D01*
X159066646Y-68219185D01*
X159068498Y-68220398D01*
X159178045Y-68293595D01*
X159178058Y-68293602D01*
X159323729Y-68353940D01*
X159323734Y-68353942D01*
X159478384Y-68384704D01*
X159478387Y-68384705D01*
X159478389Y-68384705D01*
X159636075Y-68384705D01*
X159636076Y-68384704D01*
X159790728Y-68353942D01*
X159936410Y-68293599D01*
X160067520Y-68205994D01*
X160179020Y-68094494D01*
X160266625Y-67963384D01*
X160326968Y-67817702D01*
X160357731Y-67663047D01*
X160357731Y-67505363D01*
X160357731Y-67505360D01*
X160357730Y-67505358D01*
X160352456Y-67478842D01*
X160326968Y-67350708D01*
X160291082Y-67264070D01*
X160266628Y-67205032D01*
X160266621Y-67205019D01*
X160179020Y-67073916D01*
X160179017Y-67073912D01*
X160067523Y-66962418D01*
X160014596Y-66927053D01*
X159969792Y-66873440D01*
X159961085Y-66804115D01*
X159991240Y-66741088D01*
X159995791Y-66736286D01*
X160021789Y-66710289D01*
X160109394Y-66579179D01*
X160169737Y-66433497D01*
X160200500Y-66278842D01*
X160200500Y-66121158D01*
X160200500Y-66121155D01*
X160200499Y-66121153D01*
X160194001Y-66088484D01*
X160169737Y-65966503D01*
X160120023Y-65846481D01*
X160109397Y-65820827D01*
X160109390Y-65820814D01*
X160021789Y-65689711D01*
X160021786Y-65689707D01*
X159910292Y-65578213D01*
X159910288Y-65578210D01*
X159779185Y-65490609D01*
X159779172Y-65490602D01*
X159633501Y-65430264D01*
X159633489Y-65430261D01*
X159478845Y-65399500D01*
X159478842Y-65399500D01*
X159321158Y-65399500D01*
X159321155Y-65399500D01*
X159166510Y-65430261D01*
X159166498Y-65430264D01*
X159020827Y-65490602D01*
X159020815Y-65490609D01*
X158926541Y-65553602D01*
X158859864Y-65574480D01*
X158857650Y-65574500D01*
X151410873Y-65574500D01*
X151343834Y-65554815D01*
X151298079Y-65502011D01*
X151288135Y-65432853D01*
X151306621Y-65384607D01*
X151306521Y-65384554D01*
X151306950Y-65383750D01*
X151307771Y-65381609D01*
X151309390Y-65379185D01*
X151309390Y-65379184D01*
X151309394Y-65379179D01*
X151369737Y-65233497D01*
X151400500Y-65078842D01*
X151400500Y-64921158D01*
X151400500Y-64921155D01*
X151400499Y-64921153D01*
X151385076Y-64843616D01*
X151369737Y-64766503D01*
X151369735Y-64766498D01*
X151333576Y-64679200D01*
X151333063Y-64677961D01*
X153937380Y-64677961D01*
X153937380Y-64677962D01*
X153940929Y-64680334D01*
X154068313Y-64733097D01*
X154068323Y-64733100D01*
X154203553Y-64760000D01*
X154341446Y-64760000D01*
X154476676Y-64733100D01*
X154476686Y-64733097D01*
X154604070Y-64680334D01*
X154604072Y-64680332D01*
X154607619Y-64677961D01*
X155037380Y-64677961D01*
X155037380Y-64677962D01*
X155040929Y-64680334D01*
X155168313Y-64733097D01*
X155168323Y-64733100D01*
X155303553Y-64760000D01*
X155441446Y-64760000D01*
X155576676Y-64733100D01*
X155576686Y-64733097D01*
X155704070Y-64680334D01*
X155704072Y-64680332D01*
X155707619Y-64677961D01*
X155372501Y-64342842D01*
X155372500Y-64342842D01*
X155037380Y-64677961D01*
X154607619Y-64677961D01*
X154272501Y-64342842D01*
X154272500Y-64342842D01*
X153937380Y-64677961D01*
X151333063Y-64677961D01*
X151309395Y-64620823D01*
X151309390Y-64620814D01*
X151221789Y-64489711D01*
X151221786Y-64489707D01*
X151110292Y-64378213D01*
X151110288Y-64378210D01*
X150979185Y-64290609D01*
X150979172Y-64290602D01*
X150833501Y-64230264D01*
X150833491Y-64230261D01*
X150698275Y-64203365D01*
X150698274Y-64203364D01*
X150678845Y-64199500D01*
X150678842Y-64199500D01*
X150521158Y-64199500D01*
X150521155Y-64199500D01*
X150366510Y-64230261D01*
X150366498Y-64230264D01*
X150220827Y-64290602D01*
X150220815Y-64290609D01*
X150126541Y-64353602D01*
X150059864Y-64374480D01*
X150057650Y-64374500D01*
X140461607Y-64374500D01*
X140338393Y-64374500D01*
X140319741Y-64378210D01*
X140298419Y-64382451D01*
X140298418Y-64382450D01*
X140217552Y-64398536D01*
X140217541Y-64398539D01*
X140189175Y-64410289D01*
X140170397Y-64418067D01*
X140103715Y-64445688D01*
X140103714Y-64445688D01*
X140095131Y-64451423D01*
X140090809Y-64454311D01*
X140090808Y-64454312D01*
X140001271Y-64514138D01*
X140001269Y-64514139D01*
X139974068Y-64541341D01*
X139914142Y-64601267D01*
X130204081Y-74311327D01*
X130204073Y-74311335D01*
X130201270Y-74314139D01*
X130201267Y-74314142D01*
X130114142Y-74401267D01*
X130084460Y-74445689D01*
X130079896Y-74452520D01*
X130045684Y-74503720D01*
X130013427Y-74581597D01*
X130013428Y-74581598D01*
X130001725Y-74609853D01*
X129998539Y-74617542D01*
X129998536Y-74617552D01*
X129989875Y-74661098D01*
X129977073Y-74725463D01*
X129974671Y-74737538D01*
X129974657Y-74737604D01*
X129974500Y-74738391D01*
X129974500Y-81089547D01*
X129954815Y-81156586D01*
X129938181Y-81177228D01*
X127090412Y-84024996D01*
X127071922Y-84035091D01*
X127056248Y-84049172D01*
X127041870Y-84051501D01*
X127029089Y-84058481D01*
X127008074Y-84056978D01*
X126987278Y-84060348D01*
X126973925Y-84054535D01*
X126959397Y-84053497D01*
X126942531Y-84040871D01*
X126923214Y-84032463D01*
X126906616Y-84013984D01*
X126903464Y-84011625D01*
X126899629Y-84006206D01*
X126846398Y-83926541D01*
X126825520Y-83859864D01*
X126825500Y-83857650D01*
X126825500Y-76510452D01*
X126845185Y-76443413D01*
X126861819Y-76422771D01*
X139156629Y-64127961D01*
X153387380Y-64127961D01*
X153387380Y-64127962D01*
X153390925Y-64130331D01*
X153523946Y-64185429D01*
X153523363Y-64186836D01*
X153575532Y-64221015D01*
X153596225Y-64258903D01*
X153597070Y-64258554D01*
X153652168Y-64391573D01*
X153652168Y-64391574D01*
X153654537Y-64395119D01*
X153989657Y-64060000D01*
X153989657Y-64059999D01*
X153959821Y-64030163D01*
X154122500Y-64030163D01*
X154122500Y-64089837D01*
X154145336Y-64144968D01*
X154187532Y-64187164D01*
X154242663Y-64210000D01*
X154302337Y-64210000D01*
X154357468Y-64187164D01*
X154399664Y-64144968D01*
X154422500Y-64089837D01*
X154422500Y-64060000D01*
X154555342Y-64060000D01*
X154822500Y-64327157D01*
X154822501Y-64327157D01*
X155089657Y-64060001D01*
X155089657Y-64059999D01*
X155059821Y-64030163D01*
X155222500Y-64030163D01*
X155222500Y-64089837D01*
X155245336Y-64144968D01*
X155287532Y-64187164D01*
X155342663Y-64210000D01*
X155402337Y-64210000D01*
X155457468Y-64187164D01*
X155499664Y-64144968D01*
X155522500Y-64089837D01*
X155522500Y-64060000D01*
X155655342Y-64060000D01*
X155990461Y-64395119D01*
X155992832Y-64391572D01*
X155992834Y-64391570D01*
X156047930Y-64258554D01*
X156049332Y-64259135D01*
X156083529Y-64206956D01*
X156121403Y-64186274D01*
X156121054Y-64185430D01*
X156254070Y-64130334D01*
X156254072Y-64130332D01*
X156257619Y-64127961D01*
X155922501Y-63792842D01*
X155922500Y-63792842D01*
X155655342Y-64060000D01*
X155522500Y-64060000D01*
X155522500Y-64030163D01*
X155499664Y-63975032D01*
X155457468Y-63932836D01*
X155402337Y-63910000D01*
X155342663Y-63910000D01*
X155287532Y-63932836D01*
X155245336Y-63975032D01*
X155222500Y-64030163D01*
X155059821Y-64030163D01*
X154822500Y-63792842D01*
X154555342Y-64060000D01*
X154422500Y-64060000D01*
X154422500Y-64030163D01*
X154399664Y-63975032D01*
X154357468Y-63932836D01*
X154302337Y-63910000D01*
X154242663Y-63910000D01*
X154187532Y-63932836D01*
X154145336Y-63975032D01*
X154122500Y-64030163D01*
X153959821Y-64030163D01*
X153848237Y-63918579D01*
X153848237Y-63918580D01*
X153722498Y-63792842D01*
X153387380Y-64127961D01*
X139156629Y-64127961D01*
X139705644Y-63578946D01*
X153022499Y-63578946D01*
X153049399Y-63714176D01*
X153049401Y-63714182D01*
X153102168Y-63841573D01*
X153102168Y-63841574D01*
X153104537Y-63845119D01*
X153439657Y-63510000D01*
X153409820Y-63480163D01*
X153572500Y-63480163D01*
X153572500Y-63539837D01*
X153595336Y-63594968D01*
X153637532Y-63637164D01*
X153692663Y-63660000D01*
X153752337Y-63660000D01*
X153807468Y-63637164D01*
X153849664Y-63594968D01*
X153872500Y-63539837D01*
X153872500Y-63510000D01*
X154005342Y-63510000D01*
X154138906Y-63643564D01*
X154138921Y-63643578D01*
X154272500Y-63777157D01*
X154272501Y-63777157D01*
X154406078Y-63643579D01*
X154539657Y-63510000D01*
X154539657Y-63509999D01*
X154509821Y-63480163D01*
X154672500Y-63480163D01*
X154672500Y-63539837D01*
X154695336Y-63594968D01*
X154737532Y-63637164D01*
X154792663Y-63660000D01*
X154852337Y-63660000D01*
X154907468Y-63637164D01*
X154949664Y-63594968D01*
X154972500Y-63539837D01*
X154972500Y-63510000D01*
X155105342Y-63510000D01*
X155238906Y-63643564D01*
X155238921Y-63643578D01*
X155372500Y-63777157D01*
X155372501Y-63777157D01*
X155506078Y-63643579D01*
X155639657Y-63510000D01*
X155639657Y-63509999D01*
X155609821Y-63480163D01*
X155772500Y-63480163D01*
X155772500Y-63539837D01*
X155795336Y-63594968D01*
X155837532Y-63637164D01*
X155892663Y-63660000D01*
X155952337Y-63660000D01*
X156007468Y-63637164D01*
X156049664Y-63594968D01*
X156072500Y-63539837D01*
X156072500Y-63510000D01*
X156205342Y-63510000D01*
X156540461Y-63845119D01*
X156542832Y-63841572D01*
X156542834Y-63841570D01*
X156595597Y-63714186D01*
X156595600Y-63714176D01*
X156622500Y-63578946D01*
X156622500Y-63441053D01*
X156595600Y-63305823D01*
X156595597Y-63305813D01*
X156542834Y-63178429D01*
X156540461Y-63174880D01*
X156205342Y-63510000D01*
X156072500Y-63510000D01*
X156072500Y-63480163D01*
X156049664Y-63425032D01*
X156007468Y-63382836D01*
X155952337Y-63360000D01*
X155892663Y-63360000D01*
X155837532Y-63382836D01*
X155795336Y-63425032D01*
X155772500Y-63480163D01*
X155609821Y-63480163D01*
X155372500Y-63242842D01*
X155105342Y-63510000D01*
X154972500Y-63510000D01*
X154972500Y-63480163D01*
X154949664Y-63425032D01*
X154907468Y-63382836D01*
X154852337Y-63360000D01*
X154792663Y-63360000D01*
X154737532Y-63382836D01*
X154695336Y-63425032D01*
X154672500Y-63480163D01*
X154509821Y-63480163D01*
X154272500Y-63242842D01*
X154005342Y-63510000D01*
X153872500Y-63510000D01*
X153872500Y-63480163D01*
X153849664Y-63425032D01*
X153807468Y-63382836D01*
X153752337Y-63360000D01*
X153692663Y-63360000D01*
X153637532Y-63382836D01*
X153595336Y-63425032D01*
X153572500Y-63480163D01*
X153409820Y-63480163D01*
X153104537Y-63174880D01*
X153104536Y-63174880D01*
X153102167Y-63178427D01*
X153102166Y-63178428D01*
X153049402Y-63305813D01*
X153049399Y-63305823D01*
X153022500Y-63441053D01*
X153022500Y-63578946D01*
X153022499Y-63578946D01*
X139705644Y-63578946D01*
X139822771Y-63461819D01*
X139884094Y-63428334D01*
X139910452Y-63425500D01*
X141661607Y-63425500D01*
X141722029Y-63413481D01*
X141782452Y-63401463D01*
X141821398Y-63385331D01*
X141896286Y-63354312D01*
X141947509Y-63320084D01*
X141998733Y-63285858D01*
X142085858Y-63198733D01*
X142085859Y-63198731D01*
X142092925Y-63191665D01*
X142092928Y-63191661D01*
X142289235Y-62995354D01*
X153490698Y-62995354D01*
X153722498Y-63227156D01*
X153859052Y-63090605D01*
X153954301Y-62995354D01*
X153954301Y-62995353D01*
X153889111Y-62930163D01*
X154122500Y-62930163D01*
X154122500Y-62989837D01*
X154145336Y-63044968D01*
X154187532Y-63087164D01*
X154242663Y-63110000D01*
X154302337Y-63110000D01*
X154357468Y-63087164D01*
X154399664Y-63044968D01*
X154422500Y-62989837D01*
X154422500Y-62960000D01*
X154555342Y-62960000D01*
X154685948Y-63090606D01*
X154822500Y-63227157D01*
X154959051Y-63090606D01*
X155089657Y-62959999D01*
X155059821Y-62930163D01*
X155222500Y-62930163D01*
X155222500Y-62989837D01*
X155245336Y-63044968D01*
X155287532Y-63087164D01*
X155342663Y-63110000D01*
X155402337Y-63110000D01*
X155457468Y-63087164D01*
X155499664Y-63044968D01*
X155522500Y-62989837D01*
X155522500Y-62960000D01*
X155655342Y-62960000D01*
X155785948Y-63090606D01*
X155922500Y-63227157D01*
X155922501Y-63227157D01*
X156189657Y-62960001D01*
X156189657Y-62959999D01*
X155922501Y-62692842D01*
X155922500Y-62692842D01*
X155655342Y-62960000D01*
X155522500Y-62960000D01*
X155522500Y-62930163D01*
X155499664Y-62875032D01*
X155457468Y-62832836D01*
X155402337Y-62810000D01*
X155342663Y-62810000D01*
X155287532Y-62832836D01*
X155245336Y-62875032D01*
X155222500Y-62930163D01*
X155059821Y-62930163D01*
X154822500Y-62692842D01*
X154555342Y-62960000D01*
X154422500Y-62960000D01*
X154422500Y-62930163D01*
X154399664Y-62875032D01*
X154357468Y-62832836D01*
X154302337Y-62810000D01*
X154242663Y-62810000D01*
X154187532Y-62832836D01*
X154145336Y-62875032D01*
X154122500Y-62930163D01*
X153889111Y-62930163D01*
X153722501Y-62763553D01*
X153722500Y-62763553D01*
X153490698Y-62995354D01*
X142289235Y-62995354D01*
X142953386Y-62331202D01*
X152922500Y-62331202D01*
X152922500Y-62488797D01*
X152953241Y-62643343D01*
X152953243Y-62643351D01*
X153006653Y-62772293D01*
X153368946Y-62410001D01*
X153368946Y-62409999D01*
X153339110Y-62380163D01*
X153572500Y-62380163D01*
X153572500Y-62439837D01*
X153595336Y-62494968D01*
X153637532Y-62537164D01*
X153692663Y-62560000D01*
X153752337Y-62560000D01*
X153807468Y-62537164D01*
X153849664Y-62494968D01*
X153872500Y-62439837D01*
X153872500Y-62409999D01*
X154076053Y-62409999D01*
X154307855Y-62641800D01*
X154406076Y-62543578D01*
X154406082Y-62543574D01*
X154539657Y-62410000D01*
X154539657Y-62409999D01*
X154509821Y-62380163D01*
X154672500Y-62380163D01*
X154672500Y-62439837D01*
X154695336Y-62494968D01*
X154737532Y-62537164D01*
X154792663Y-62560000D01*
X154852337Y-62560000D01*
X154907468Y-62537164D01*
X154949664Y-62494968D01*
X154972500Y-62439837D01*
X154972500Y-62410000D01*
X155105342Y-62410000D01*
X155238906Y-62543564D01*
X155238921Y-62543578D01*
X155372500Y-62677157D01*
X155372501Y-62677157D01*
X155506078Y-62543579D01*
X155639657Y-62410000D01*
X155639657Y-62409999D01*
X155609821Y-62380163D01*
X155772500Y-62380163D01*
X155772500Y-62439837D01*
X155795336Y-62494968D01*
X155837532Y-62537164D01*
X155892663Y-62560000D01*
X155952337Y-62560000D01*
X156007468Y-62537164D01*
X156049664Y-62494968D01*
X156072500Y-62439837D01*
X156072500Y-62410000D01*
X156205342Y-62410000D01*
X156540461Y-62745119D01*
X156542832Y-62741572D01*
X156542834Y-62741570D01*
X156595597Y-62614186D01*
X156595600Y-62614176D01*
X156622500Y-62478946D01*
X156622500Y-62341053D01*
X156595600Y-62205823D01*
X156595597Y-62205813D01*
X156542834Y-62078429D01*
X156540461Y-62074880D01*
X156205342Y-62410000D01*
X156072500Y-62410000D01*
X156072500Y-62380163D01*
X156049664Y-62325032D01*
X156007468Y-62282836D01*
X155952337Y-62260000D01*
X155892663Y-62260000D01*
X155837532Y-62282836D01*
X155795336Y-62325032D01*
X155772500Y-62380163D01*
X155609821Y-62380163D01*
X155372500Y-62142842D01*
X155105342Y-62410000D01*
X154972500Y-62410000D01*
X154972500Y-62380163D01*
X154949664Y-62325032D01*
X154907468Y-62282836D01*
X154852337Y-62260000D01*
X154792663Y-62260000D01*
X154737532Y-62282836D01*
X154695336Y-62325032D01*
X154672500Y-62380163D01*
X154509821Y-62380163D01*
X154398237Y-62268579D01*
X154398237Y-62268580D01*
X154307854Y-62178198D01*
X154076053Y-62409999D01*
X153872500Y-62409999D01*
X153872500Y-62380163D01*
X153849664Y-62325032D01*
X153807468Y-62282836D01*
X153752337Y-62260000D01*
X153692663Y-62260000D01*
X153637532Y-62282836D01*
X153595336Y-62325032D01*
X153572500Y-62380163D01*
X153339110Y-62380163D01*
X153006653Y-62047705D01*
X152953243Y-62176648D01*
X152953241Y-62176656D01*
X152922500Y-62331202D01*
X142953386Y-62331202D01*
X143590435Y-61694153D01*
X153360205Y-61694153D01*
X153722500Y-62056446D01*
X153722501Y-62056446D01*
X153948783Y-61830163D01*
X154122500Y-61830163D01*
X154122500Y-61889837D01*
X154145336Y-61944968D01*
X154187532Y-61987164D01*
X154242663Y-62010000D01*
X154302337Y-62010000D01*
X154357468Y-61987164D01*
X154399664Y-61944968D01*
X154422500Y-61889837D01*
X154422500Y-61859998D01*
X154555342Y-61859998D01*
X154682533Y-61987190D01*
X154682532Y-61987190D01*
X154822500Y-62127157D01*
X154962467Y-61987190D01*
X155089657Y-61859998D01*
X155059822Y-61830163D01*
X155222500Y-61830163D01*
X155222500Y-61889837D01*
X155245336Y-61944968D01*
X155287532Y-61987164D01*
X155342663Y-62010000D01*
X155402337Y-62010000D01*
X155457468Y-61987164D01*
X155499664Y-61944968D01*
X155522500Y-61889837D01*
X155522500Y-61859998D01*
X155655342Y-61859998D01*
X155782533Y-61987190D01*
X155782532Y-61987190D01*
X155922500Y-62127157D01*
X155922501Y-62127157D01*
X156257619Y-61792037D01*
X156254074Y-61789668D01*
X156121054Y-61734570D01*
X156121634Y-61733168D01*
X156069449Y-61698963D01*
X156048776Y-61661094D01*
X156047929Y-61661446D01*
X155992831Y-61528425D01*
X155990462Y-61524880D01*
X155990461Y-61524880D01*
X155655342Y-61859998D01*
X155522500Y-61859998D01*
X155522500Y-61830163D01*
X155499664Y-61775032D01*
X155457468Y-61732836D01*
X155402337Y-61710000D01*
X155342663Y-61710000D01*
X155287532Y-61732836D01*
X155245336Y-61775032D01*
X155222500Y-61830163D01*
X155059822Y-61830163D01*
X154822501Y-61592842D01*
X154822500Y-61592842D01*
X154555342Y-61859998D01*
X154422500Y-61859998D01*
X154422500Y-61830163D01*
X154399664Y-61775032D01*
X154357468Y-61732836D01*
X154302337Y-61710000D01*
X154242663Y-61710000D01*
X154187532Y-61732836D01*
X154145336Y-61775032D01*
X154122500Y-61830163D01*
X153948783Y-61830163D01*
X153954302Y-61824644D01*
X153954302Y-61824643D01*
X153654537Y-61524880D01*
X153654536Y-61524880D01*
X153652166Y-61528428D01*
X153652163Y-61528433D01*
X153641467Y-61554257D01*
X153597626Y-61608660D01*
X153551098Y-61628420D01*
X153489156Y-61640741D01*
X153489148Y-61640743D01*
X153360205Y-61694153D01*
X143590435Y-61694153D01*
X143658797Y-61625791D01*
X143720118Y-61592308D01*
X143722128Y-61591889D01*
X143833497Y-61569737D01*
X143968923Y-61513642D01*
X143979172Y-61509397D01*
X143979172Y-61509396D01*
X143979179Y-61509394D01*
X144110289Y-61421789D01*
X144221789Y-61310289D01*
X144260666Y-61252106D01*
X144267395Y-61242036D01*
X153937380Y-61242036D01*
X153937380Y-61242037D01*
X154272500Y-61577157D01*
X154272501Y-61577157D01*
X154607619Y-61242037D01*
X154607618Y-61242036D01*
X155037380Y-61242036D01*
X155037380Y-61242037D01*
X155372500Y-61577157D01*
X155372501Y-61577157D01*
X155707619Y-61242037D01*
X155704074Y-61239668D01*
X155576682Y-61186901D01*
X155576676Y-61186899D01*
X155441446Y-61160000D01*
X155303554Y-61160000D01*
X155168323Y-61186899D01*
X155168313Y-61186902D01*
X155040928Y-61239666D01*
X155040927Y-61239667D01*
X155037380Y-61242036D01*
X154607618Y-61242036D01*
X154604074Y-61239668D01*
X154476682Y-61186901D01*
X154476676Y-61186899D01*
X154341446Y-61160000D01*
X154203554Y-61160000D01*
X154068323Y-61186899D01*
X154068313Y-61186902D01*
X153940928Y-61239666D01*
X153940927Y-61239667D01*
X153937380Y-61242036D01*
X144267395Y-61242036D01*
X144282550Y-61219355D01*
X144309390Y-61179185D01*
X144309390Y-61179184D01*
X144309394Y-61179179D01*
X144369737Y-61033497D01*
X144400500Y-60878842D01*
X144400500Y-60721158D01*
X144400500Y-60721155D01*
X144400499Y-60721153D01*
X144391808Y-60677461D01*
X144369737Y-60566503D01*
X144331725Y-60474733D01*
X144309397Y-60420827D01*
X144309390Y-60420814D01*
X144221789Y-60289711D01*
X144221786Y-60289707D01*
X144169260Y-60237181D01*
X144135775Y-60175858D01*
X144140759Y-60106166D01*
X144182631Y-60050233D01*
X144248095Y-60025816D01*
X144256941Y-60025500D01*
X145875500Y-60025500D01*
X145942539Y-60045185D01*
X145988294Y-60097989D01*
X145999500Y-60149500D01*
X145999500Y-60278846D01*
X146030261Y-60433489D01*
X146030264Y-60433501D01*
X146090602Y-60579172D01*
X146090609Y-60579185D01*
X146178210Y-60710288D01*
X146178213Y-60710292D01*
X146289707Y-60821786D01*
X146289711Y-60821789D01*
X146420814Y-60909390D01*
X146420827Y-60909397D01*
X146566498Y-60969735D01*
X146566503Y-60969737D01*
X146721153Y-61000499D01*
X146721156Y-61000500D01*
X146721158Y-61000500D01*
X146878844Y-61000500D01*
X146878845Y-61000499D01*
X147033497Y-60969737D01*
X147179179Y-60909394D01*
X147310289Y-60821789D01*
X147421789Y-60710289D01*
X147509394Y-60579179D01*
X147514643Y-60566508D01*
X147523067Y-60546166D01*
X147569737Y-60433497D01*
X147600500Y-60278842D01*
X147600500Y-60121158D01*
X147600500Y-60121155D01*
X147600499Y-60121153D01*
X147569738Y-59966510D01*
X147569737Y-59966503D01*
X147509394Y-59820821D01*
X147446397Y-59726539D01*
X147425520Y-59659863D01*
X147425500Y-59657650D01*
X147425500Y-59338393D01*
X147425499Y-59338389D01*
X147413655Y-59278842D01*
X147401463Y-59217548D01*
X147394322Y-59200308D01*
X147382163Y-59170952D01*
X147374694Y-59101482D01*
X147405970Y-59039003D01*
X147466059Y-59003352D01*
X147496724Y-58999500D01*
X154063548Y-58999500D01*
X154130587Y-59019185D01*
X154151229Y-59035819D01*
X155765585Y-60650177D01*
X155765607Y-60650197D01*
X157374205Y-62258795D01*
X157407690Y-62320118D01*
X157408141Y-62322285D01*
X157430261Y-62433489D01*
X157430264Y-62433501D01*
X157490602Y-62579172D01*
X157490609Y-62579185D01*
X157578210Y-62710288D01*
X157578213Y-62710292D01*
X157689707Y-62821786D01*
X157689711Y-62821789D01*
X157820814Y-62909390D01*
X157820827Y-62909397D01*
X157942998Y-62960001D01*
X157966503Y-62969737D01*
X158116131Y-62999500D01*
X158121153Y-63000499D01*
X158121156Y-63000500D01*
X158121158Y-63000500D01*
X158278844Y-63000500D01*
X158278845Y-63000499D01*
X158433497Y-62969737D01*
X158579179Y-62909394D01*
X158710289Y-62821789D01*
X158772377Y-62759700D01*
X158795458Y-62747097D01*
X158816476Y-62731294D01*
X158825635Y-62730619D01*
X158833698Y-62726217D01*
X158859930Y-62728092D01*
X158886157Y-62726161D01*
X158894228Y-62730545D01*
X158903390Y-62731201D01*
X158924441Y-62746959D01*
X158947552Y-62759515D01*
X158953923Y-62769029D01*
X158959324Y-62773072D01*
X158968763Y-62787725D01*
X158972025Y-62793669D01*
X158992498Y-62843096D01*
X159026725Y-62894319D01*
X159029732Y-62898819D01*
X159029733Y-62898821D01*
X159060950Y-62945541D01*
X159060951Y-62945542D01*
X159060952Y-62945543D01*
X159148077Y-63032668D01*
X159148078Y-63032668D01*
X159155145Y-63039735D01*
X159155144Y-63039735D01*
X159155148Y-63039738D01*
X160074205Y-63958796D01*
X160107690Y-64020119D01*
X160108141Y-64022286D01*
X160130261Y-64133489D01*
X160130264Y-64133501D01*
X160190602Y-64279172D01*
X160190609Y-64279185D01*
X160278210Y-64410288D01*
X160278213Y-64410292D01*
X160389707Y-64521786D01*
X160389711Y-64521789D01*
X160520814Y-64609390D01*
X160520827Y-64609397D01*
X160666498Y-64669735D01*
X160666503Y-64669737D01*
X160821153Y-64700499D01*
X160821156Y-64700500D01*
X160821158Y-64700500D01*
X160978844Y-64700500D01*
X160978845Y-64700499D01*
X161133497Y-64669737D01*
X161251592Y-64620821D01*
X161279172Y-64609397D01*
X161279172Y-64609396D01*
X161279179Y-64609394D01*
X161410289Y-64521789D01*
X161521789Y-64410289D01*
X161609394Y-64279179D01*
X161669737Y-64133497D01*
X161700500Y-63978842D01*
X161700500Y-63821158D01*
X161700500Y-63821155D01*
X161700499Y-63821153D01*
X161696543Y-63801266D01*
X161669737Y-63666503D01*
X161660241Y-63643578D01*
X161609397Y-63520827D01*
X161609390Y-63520814D01*
X161521789Y-63389711D01*
X161521786Y-63389707D01*
X161410292Y-63278213D01*
X161410288Y-63278210D01*
X161279185Y-63190609D01*
X161279172Y-63190602D01*
X161133501Y-63130264D01*
X161133489Y-63130261D01*
X161022286Y-63108141D01*
X160960375Y-63075756D01*
X160958796Y-63074205D01*
X160208088Y-62323497D01*
X160175682Y-62266721D01*
X160172310Y-62253618D01*
X160172310Y-62247394D01*
X160148273Y-62126548D01*
X160128742Y-62079397D01*
X160101122Y-62012715D01*
X160092959Y-62000499D01*
X160084067Y-61987191D01*
X160084066Y-61987190D01*
X160032668Y-61910267D01*
X160032666Y-61910264D01*
X159942447Y-61820045D01*
X159942416Y-61820016D01*
X155480113Y-57357713D01*
X155472670Y-57350270D01*
X155472668Y-57350267D01*
X155385543Y-57263142D01*
X155329208Y-57225500D01*
X155283096Y-57194688D01*
X155283097Y-57194688D01*
X155283095Y-57194687D01*
X155236484Y-57175381D01*
X155197368Y-57159179D01*
X155169262Y-57147537D01*
X155108839Y-57135518D01*
X155104473Y-57134649D01*
X155104471Y-57134649D01*
X155048420Y-57123500D01*
X155048417Y-57123500D01*
X155048416Y-57123500D01*
X148702929Y-57123500D01*
X148635890Y-57103815D01*
X148590135Y-57051011D01*
X148580191Y-56981853D01*
X148581312Y-56975309D01*
X148600499Y-56878846D01*
X148600500Y-56878844D01*
X148600500Y-56721155D01*
X148600499Y-56721153D01*
X148595218Y-56694606D01*
X148569737Y-56566503D01*
X148561453Y-56546503D01*
X148509397Y-56420827D01*
X148509390Y-56420814D01*
X148477703Y-56373391D01*
X148456825Y-56306713D01*
X148475310Y-56239333D01*
X148527289Y-56192643D01*
X148580805Y-56180500D01*
X165592405Y-56180500D01*
X165635572Y-56180500D01*
X165644418Y-56180816D01*
X165873020Y-56197165D01*
X165890529Y-56199683D01*
X166110144Y-56247458D01*
X166127103Y-56252437D01*
X166337694Y-56330983D01*
X166353777Y-56338327D01*
X166551036Y-56446040D01*
X166565919Y-56455605D01*
X166745836Y-56590289D01*
X166759207Y-56601875D01*
X166918124Y-56760792D01*
X166929710Y-56774163D01*
X167064394Y-56954080D01*
X167073959Y-56968963D01*
X167181669Y-57166217D01*
X167189019Y-57182311D01*
X167267559Y-57392887D01*
X167272543Y-57409862D01*
X167320316Y-57629470D01*
X167322834Y-57646982D01*
X167339184Y-57875581D01*
X167339500Y-57884427D01*
X167339500Y-108485572D01*
X167339184Y-108494418D01*
X167322834Y-108723017D01*
X167320316Y-108740529D01*
X167272543Y-108960137D01*
X167267559Y-108977112D01*
X167189019Y-109187688D01*
X167181669Y-109203782D01*
X167073959Y-109401036D01*
X167064394Y-109415919D01*
X166929710Y-109595836D01*
X166918124Y-109609207D01*
X166759207Y-109768124D01*
X166745836Y-109779710D01*
X166565919Y-109914394D01*
X166551036Y-109923959D01*
X166353782Y-110031669D01*
X166337688Y-110039019D01*
X166127112Y-110117559D01*
X166110137Y-110122543D01*
X165890529Y-110170316D01*
X165873017Y-110172834D01*
X165644418Y-110189184D01*
X165635572Y-110189500D01*
X56614428Y-110189500D01*
X56605582Y-110189184D01*
X56376982Y-110172834D01*
X56359470Y-110170316D01*
X56139862Y-110122543D01*
X56122887Y-110117559D01*
X55912311Y-110039019D01*
X55896217Y-110031669D01*
X55698963Y-109923959D01*
X55684080Y-109914394D01*
X55504163Y-109779710D01*
X55490792Y-109768124D01*
X55331875Y-109609207D01*
X55320289Y-109595836D01*
X55185605Y-109415919D01*
X55176040Y-109401036D01*
X55068330Y-109203782D01*
X55060983Y-109187694D01*
X54982437Y-108977103D01*
X54977458Y-108960144D01*
X54929683Y-108740529D01*
X54927165Y-108723017D01*
X54910816Y-108494418D01*
X54910500Y-108485572D01*
X54910500Y-67321153D01*
X85599500Y-67321153D01*
X85599500Y-67478846D01*
X85630261Y-67633489D01*
X85630264Y-67633501D01*
X85690602Y-67779172D01*
X85690606Y-67779179D01*
X85728602Y-67836044D01*
X85749480Y-67902721D01*
X85749500Y-67904935D01*
X85749500Y-70895064D01*
X85729815Y-70962103D01*
X85728603Y-70963954D01*
X85690608Y-71020817D01*
X85690602Y-71020828D01*
X85630264Y-71166498D01*
X85630261Y-71166510D01*
X85599500Y-71321153D01*
X85599500Y-71478846D01*
X85630261Y-71633489D01*
X85630264Y-71633501D01*
X85690602Y-71779172D01*
X85690609Y-71779185D01*
X85778210Y-71910288D01*
X85778213Y-71910292D01*
X85889707Y-72021786D01*
X85889711Y-72021789D01*
X86020814Y-72109390D01*
X86020827Y-72109397D01*
X86166498Y-72169735D01*
X86166503Y-72169737D01*
X86321153Y-72200499D01*
X86321156Y-72200500D01*
X86321158Y-72200500D01*
X86478844Y-72200500D01*
X86478845Y-72200499D01*
X86633497Y-72169737D01*
X86779179Y-72109394D01*
X86910289Y-72021789D01*
X87021789Y-71910289D01*
X87109394Y-71779179D01*
X87169737Y-71633497D01*
X87200500Y-71478842D01*
X87200500Y-71321158D01*
X87200500Y-71321155D01*
X87200499Y-71321153D01*
X87169738Y-71166510D01*
X87169737Y-71166503D01*
X87109394Y-71020821D01*
X87071396Y-70963953D01*
X87050520Y-70897276D01*
X87050500Y-70895064D01*
X87050500Y-67904935D01*
X87070185Y-67837896D01*
X87071366Y-67836090D01*
X87109394Y-67779179D01*
X87169737Y-67633497D01*
X87200500Y-67478842D01*
X87200500Y-67321158D01*
X87200500Y-67321155D01*
X87200499Y-67321153D01*
X87177401Y-67205032D01*
X87169737Y-67166503D01*
X87137279Y-67088142D01*
X87109397Y-67020827D01*
X87109390Y-67020814D01*
X87021789Y-66889711D01*
X87021786Y-66889707D01*
X86910292Y-66778213D01*
X86910288Y-66778210D01*
X86779185Y-66690609D01*
X86779172Y-66690602D01*
X86633501Y-66630264D01*
X86633489Y-66630261D01*
X86478845Y-66599500D01*
X86478842Y-66599500D01*
X86321158Y-66599500D01*
X86321155Y-66599500D01*
X86166510Y-66630261D01*
X86166498Y-66630264D01*
X86020827Y-66690602D01*
X86020814Y-66690609D01*
X85889711Y-66778210D01*
X85889707Y-66778213D01*
X85778213Y-66889707D01*
X85778210Y-66889711D01*
X85690609Y-67020814D01*
X85690602Y-67020827D01*
X85630264Y-67166498D01*
X85630261Y-67166510D01*
X85599500Y-67321153D01*
X54910500Y-67321153D01*
X54910500Y-65335574D01*
X68018000Y-65335574D01*
X68018000Y-65509425D01*
X68045197Y-65681139D01*
X68045197Y-65681142D01*
X68098918Y-65846478D01*
X68098920Y-65846481D01*
X68177847Y-66001384D01*
X68280035Y-66142033D01*
X68402967Y-66264965D01*
X68543616Y-66367153D01*
X68698519Y-66446080D01*
X68698521Y-66446081D01*
X68863858Y-66499802D01*
X68863859Y-66499802D01*
X68863862Y-66499803D01*
X69035574Y-66527000D01*
X69035575Y-66527000D01*
X69209425Y-66527000D01*
X69209426Y-66527000D01*
X69381138Y-66499803D01*
X69381141Y-66499802D01*
X69381142Y-66499802D01*
X69546478Y-66446081D01*
X69546478Y-66446080D01*
X69546481Y-66446080D01*
X69701384Y-66367153D01*
X69842033Y-66264965D01*
X69964965Y-66142033D01*
X70067153Y-66001384D01*
X70146080Y-65846481D01*
X70151207Y-65830703D01*
X70199802Y-65681142D01*
X70199802Y-65681141D01*
X70199803Y-65681138D01*
X70227000Y-65509426D01*
X70227000Y-65335574D01*
X70199803Y-65163862D01*
X70199802Y-65163858D01*
X70199802Y-65163857D01*
X70146081Y-64998521D01*
X70146080Y-64998519D01*
X70067153Y-64843616D01*
X69964965Y-64702967D01*
X69842033Y-64580035D01*
X69830048Y-64571327D01*
X69762708Y-64522401D01*
X69742023Y-64495576D01*
X69122501Y-63876053D01*
X69122500Y-63876053D01*
X68518876Y-64479674D01*
X68518652Y-64480742D01*
X68482289Y-64522403D01*
X68402967Y-64580034D01*
X68280037Y-64702964D01*
X68280037Y-64702965D01*
X68280035Y-64702967D01*
X68258144Y-64733097D01*
X68177847Y-64843615D01*
X68098918Y-64998521D01*
X68045197Y-65163857D01*
X68045197Y-65163860D01*
X68018000Y-65335574D01*
X54910500Y-65335574D01*
X54910500Y-63435607D01*
X68018500Y-63435607D01*
X68018500Y-63609392D01*
X68045683Y-63781021D01*
X68099384Y-63946293D01*
X68178276Y-64101124D01*
X68178277Y-64101126D01*
X68183344Y-64108100D01*
X68183345Y-64108100D01*
X68768946Y-63522500D01*
X68768946Y-63522499D01*
X68722869Y-63476422D01*
X68772500Y-63476422D01*
X68772500Y-63568578D01*
X68796352Y-63657595D01*
X68842430Y-63737405D01*
X68907595Y-63802570D01*
X68987405Y-63848648D01*
X69076422Y-63872500D01*
X69168578Y-63872500D01*
X69257595Y-63848648D01*
X69337405Y-63802570D01*
X69402570Y-63737405D01*
X69448648Y-63657595D01*
X69472500Y-63568578D01*
X69472500Y-63522499D01*
X69476053Y-63522499D01*
X69476053Y-63522500D01*
X70061653Y-64108100D01*
X70066724Y-64101124D01*
X70145615Y-63946293D01*
X70199316Y-63781021D01*
X70226500Y-63609392D01*
X70226500Y-63435607D01*
X70199316Y-63263978D01*
X70145615Y-63098706D01*
X70066728Y-62943882D01*
X70061653Y-62936898D01*
X69476053Y-63522499D01*
X69472500Y-63522499D01*
X69472500Y-63476422D01*
X69448648Y-63387405D01*
X69402570Y-63307595D01*
X69337405Y-63242430D01*
X69257595Y-63196352D01*
X69168578Y-63172500D01*
X69076422Y-63172500D01*
X68987405Y-63196352D01*
X68907595Y-63242430D01*
X68842430Y-63307595D01*
X68796352Y-63387405D01*
X68772500Y-63476422D01*
X68722869Y-63476422D01*
X68183345Y-62936898D01*
X68183344Y-62936898D01*
X68178275Y-62943875D01*
X68099384Y-63098706D01*
X68045683Y-63263978D01*
X68018500Y-63435607D01*
X54910500Y-63435607D01*
X54910500Y-62583344D01*
X68536898Y-62583344D01*
X68536898Y-62583345D01*
X69122500Y-63168946D01*
X69122501Y-63168946D01*
X69708101Y-62583346D01*
X69708100Y-62583344D01*
X69701126Y-62578277D01*
X69701124Y-62578276D01*
X69546293Y-62499384D01*
X69381021Y-62445683D01*
X69209392Y-62418500D01*
X69035608Y-62418500D01*
X68863978Y-62445683D01*
X68698706Y-62499384D01*
X68543875Y-62578275D01*
X68536898Y-62583344D01*
X54910500Y-62583344D01*
X54910500Y-51091253D01*
X78690000Y-51091253D01*
X78690000Y-51303746D01*
X78723242Y-51513627D01*
X78723242Y-51513630D01*
X78788904Y-51715717D01*
X78885375Y-51905050D01*
X78924728Y-51959216D01*
X79557037Y-51326908D01*
X79574075Y-51390493D01*
X79639901Y-51504507D01*
X79732993Y-51597599D01*
X79847007Y-51663425D01*
X79910590Y-51680462D01*
X79278282Y-52312769D01*
X79278282Y-52312770D01*
X79332449Y-52352124D01*
X79521782Y-52448595D01*
X79723870Y-52514257D01*
X79933754Y-52547500D01*
X80146246Y-52547500D01*
X80356127Y-52514257D01*
X80356130Y-52514257D01*
X80558217Y-52448595D01*
X80747554Y-52352122D01*
X80801716Y-52312770D01*
X80801717Y-52312770D01*
X80169408Y-51680462D01*
X80232993Y-51663425D01*
X80347007Y-51597599D01*
X80440099Y-51504507D01*
X80505925Y-51390493D01*
X80522962Y-51326908D01*
X81155270Y-51959217D01*
X81155270Y-51959216D01*
X81194622Y-51905055D01*
X81199232Y-51896007D01*
X81247205Y-51845209D01*
X81315025Y-51828412D01*
X81381161Y-51850947D01*
X81420204Y-51896004D01*
X81424949Y-51905317D01*
X81549890Y-52077286D01*
X81700213Y-52227609D01*
X81872179Y-52352548D01*
X81872181Y-52352549D01*
X81872184Y-52352551D01*
X82061588Y-52449057D01*
X82263757Y-52514746D01*
X82473713Y-52548000D01*
X82473714Y-52548000D01*
X82686286Y-52548000D01*
X82686287Y-52548000D01*
X82896243Y-52514746D01*
X83098412Y-52449057D01*
X83287816Y-52352551D01*
X83374138Y-52289835D01*
X83459786Y-52227609D01*
X83459788Y-52227606D01*
X83459792Y-52227604D01*
X83610104Y-52077292D01*
X83610106Y-52077288D01*
X83610109Y-52077286D01*
X83735048Y-51905320D01*
X83735050Y-51905317D01*
X83735051Y-51905316D01*
X83739514Y-51896554D01*
X83787488Y-51845759D01*
X83855308Y-51828963D01*
X83921444Y-51851499D01*
X83960486Y-51896556D01*
X83964951Y-51905320D01*
X84089890Y-52077286D01*
X84240213Y-52227609D01*
X84412179Y-52352548D01*
X84412181Y-52352549D01*
X84412184Y-52352551D01*
X84601588Y-52449057D01*
X84803757Y-52514746D01*
X85013713Y-52548000D01*
X85013714Y-52548000D01*
X85226286Y-52548000D01*
X85226287Y-52548000D01*
X85436243Y-52514746D01*
X85638412Y-52449057D01*
X85827816Y-52352551D01*
X85914138Y-52289835D01*
X85999786Y-52227609D01*
X85999788Y-52227606D01*
X85999792Y-52227604D01*
X86150104Y-52077292D01*
X86150106Y-52077288D01*
X86150109Y-52077286D01*
X86275048Y-51905320D01*
X86275050Y-51905317D01*
X86275051Y-51905316D01*
X86279514Y-51896554D01*
X86327488Y-51845759D01*
X86395308Y-51828963D01*
X86461444Y-51851499D01*
X86500486Y-51896556D01*
X86504951Y-51905320D01*
X86629890Y-52077286D01*
X86780213Y-52227609D01*
X86952179Y-52352548D01*
X86952181Y-52352549D01*
X86952184Y-52352551D01*
X87141588Y-52449057D01*
X87343757Y-52514746D01*
X87553713Y-52548000D01*
X87553714Y-52548000D01*
X87766286Y-52548000D01*
X87766287Y-52548000D01*
X87976243Y-52514746D01*
X88178412Y-52449057D01*
X88367816Y-52352551D01*
X88454147Y-52289828D01*
X88539784Y-52227610D01*
X88539784Y-52227609D01*
X88539792Y-52227604D01*
X88653329Y-52114066D01*
X88714648Y-52080584D01*
X88784340Y-52085568D01*
X88840274Y-52127439D01*
X88857189Y-52158417D01*
X88906202Y-52289828D01*
X88906206Y-52289835D01*
X88992452Y-52405044D01*
X88992455Y-52405047D01*
X89107664Y-52491293D01*
X89107671Y-52491297D01*
X89242517Y-52541591D01*
X89242516Y-52541591D01*
X89249444Y-52542335D01*
X89302127Y-52548000D01*
X91097872Y-52547999D01*
X91157483Y-52541591D01*
X91292331Y-52491296D01*
X91407546Y-52405046D01*
X91493796Y-52289831D01*
X91544091Y-52154983D01*
X91550500Y-52095373D01*
X91550499Y-50299628D01*
X91544091Y-50240017D01*
X91536789Y-50220438D01*
X91529964Y-50202138D01*
X91515044Y-50162135D01*
X96849500Y-50162135D01*
X96849500Y-51957870D01*
X96849501Y-51957876D01*
X96855908Y-52017483D01*
X96906202Y-52152328D01*
X96906206Y-52152335D01*
X96992452Y-52267544D01*
X96992455Y-52267547D01*
X97107664Y-52353793D01*
X97107671Y-52353797D01*
X97242517Y-52404091D01*
X97242516Y-52404091D01*
X97249444Y-52404835D01*
X97302127Y-52410500D01*
X99097872Y-52410499D01*
X99157483Y-52404091D01*
X99292331Y-52353796D01*
X99407546Y-52267546D01*
X99493796Y-52152331D01*
X99542810Y-52020916D01*
X99584681Y-51964984D01*
X99650145Y-51940566D01*
X99718418Y-51955417D01*
X99746673Y-51976569D01*
X99860213Y-52090109D01*
X100032179Y-52215048D01*
X100032181Y-52215049D01*
X100032184Y-52215051D01*
X100221588Y-52311557D01*
X100423757Y-52377246D01*
X100633713Y-52410500D01*
X100633714Y-52410500D01*
X100846286Y-52410500D01*
X100846287Y-52410500D01*
X101056243Y-52377246D01*
X101258412Y-52311557D01*
X101447816Y-52215051D01*
X101530493Y-52154983D01*
X101619786Y-52090109D01*
X101619788Y-52090106D01*
X101619792Y-52090104D01*
X101770104Y-51939792D01*
X101770106Y-51939788D01*
X101770109Y-51939786D01*
X101895048Y-51767820D01*
X101895047Y-51767820D01*
X101895051Y-51767816D01*
X101899514Y-51759054D01*
X101947488Y-51708259D01*
X102015308Y-51691463D01*
X102081444Y-51713999D01*
X102120486Y-51759056D01*
X102124951Y-51767820D01*
X102249890Y-51939786D01*
X102400213Y-52090109D01*
X102572179Y-52215048D01*
X102572181Y-52215049D01*
X102572184Y-52215051D01*
X102761588Y-52311557D01*
X102963757Y-52377246D01*
X103173713Y-52410500D01*
X103173714Y-52410500D01*
X103386286Y-52410500D01*
X103386287Y-52410500D01*
X103596243Y-52377246D01*
X103798412Y-52311557D01*
X103987816Y-52215051D01*
X104070493Y-52154983D01*
X104159786Y-52090109D01*
X104159788Y-52090106D01*
X104159792Y-52090104D01*
X104310104Y-51939792D01*
X104310106Y-51939788D01*
X104310109Y-51939786D01*
X104395890Y-51821717D01*
X104435051Y-51767816D01*
X104439793Y-51758508D01*
X104487763Y-51707711D01*
X104555583Y-51690911D01*
X104621719Y-51713445D01*
X104660763Y-51758500D01*
X104665373Y-51767547D01*
X104704728Y-51821716D01*
X105337037Y-51189408D01*
X105354075Y-51252993D01*
X105419901Y-51367007D01*
X105512993Y-51460099D01*
X105627007Y-51525925D01*
X105690590Y-51542962D01*
X105058282Y-52175269D01*
X105058282Y-52175270D01*
X105112449Y-52214624D01*
X105301782Y-52311095D01*
X105503870Y-52376757D01*
X105713754Y-52410000D01*
X105926246Y-52410000D01*
X106136127Y-52376757D01*
X106136130Y-52376757D01*
X106338217Y-52311095D01*
X106395511Y-52281902D01*
X116299500Y-52281902D01*
X116299500Y-52518097D01*
X116336446Y-52751368D01*
X116409433Y-52975996D01*
X116495894Y-53145684D01*
X116516657Y-53186433D01*
X116655483Y-53377510D01*
X116822490Y-53544517D01*
X117013567Y-53683343D01*
X117112991Y-53734002D01*
X117224003Y-53790566D01*
X117224005Y-53790566D01*
X117224008Y-53790568D01*
X117344412Y-53829689D01*
X117448631Y-53863553D01*
X117681903Y-53900500D01*
X117681908Y-53900500D01*
X117918097Y-53900500D01*
X118151368Y-53863553D01*
X118375992Y-53790568D01*
X118586433Y-53683343D01*
X118777510Y-53544517D01*
X118944517Y-53377510D01*
X119083343Y-53186433D01*
X119190568Y-52975992D01*
X119263553Y-52751368D01*
X119300500Y-52518097D01*
X119300500Y-52281902D01*
X119263553Y-52048631D01*
X119197635Y-51845759D01*
X119190568Y-51824008D01*
X119190566Y-51824005D01*
X119190566Y-51824003D01*
X119108747Y-51663425D01*
X119083343Y-51613567D01*
X118944517Y-51422490D01*
X118777510Y-51255483D01*
X118586433Y-51116657D01*
X118536575Y-51091253D01*
X118375996Y-51009433D01*
X118151368Y-50936446D01*
X117918097Y-50899500D01*
X117918092Y-50899500D01*
X117681908Y-50899500D01*
X117681903Y-50899500D01*
X117448631Y-50936446D01*
X117224003Y-51009433D01*
X117013566Y-51116657D01*
X116945257Y-51166287D01*
X116822490Y-51255483D01*
X116822488Y-51255485D01*
X116822487Y-51255485D01*
X116655485Y-51422487D01*
X116655485Y-51422488D01*
X116655483Y-51422490D01*
X116595894Y-51504507D01*
X116516657Y-51613566D01*
X116409433Y-51824003D01*
X116336446Y-52048631D01*
X116299500Y-52281902D01*
X106395511Y-52281902D01*
X106527554Y-52214622D01*
X106579725Y-52176718D01*
X106581716Y-52175270D01*
X106581717Y-52175270D01*
X105949408Y-51542962D01*
X106012993Y-51525925D01*
X106127007Y-51460099D01*
X106220099Y-51367007D01*
X106285925Y-51252993D01*
X106302962Y-51189408D01*
X106935270Y-51821717D01*
X106935270Y-51821716D01*
X106974622Y-51767554D01*
X107071095Y-51578217D01*
X107136757Y-51376130D01*
X107136757Y-51376127D01*
X107170000Y-51166246D01*
X107170000Y-50953753D01*
X107136757Y-50743872D01*
X107136757Y-50743869D01*
X107071095Y-50541782D01*
X106974624Y-50352449D01*
X106935270Y-50298282D01*
X106935269Y-50298282D01*
X106302962Y-50930590D01*
X106285925Y-50867007D01*
X106220099Y-50752993D01*
X106127007Y-50659901D01*
X106012993Y-50594075D01*
X105949409Y-50577037D01*
X106581716Y-49944728D01*
X106527550Y-49905375D01*
X106338217Y-49808904D01*
X106136129Y-49743242D01*
X105926246Y-49710000D01*
X105713754Y-49710000D01*
X105503872Y-49743242D01*
X105503869Y-49743242D01*
X105301782Y-49808904D01*
X105112439Y-49905380D01*
X105058282Y-49944727D01*
X105058282Y-49944728D01*
X105690591Y-50577037D01*
X105627007Y-50594075D01*
X105512993Y-50659901D01*
X105419901Y-50752993D01*
X105354075Y-50867007D01*
X105337037Y-50930591D01*
X104704728Y-50298282D01*
X104704727Y-50298282D01*
X104665380Y-50352440D01*
X104665376Y-50352446D01*
X104660760Y-50361505D01*
X104612781Y-50412297D01*
X104544959Y-50429087D01*
X104478826Y-50406543D01*
X104439794Y-50361493D01*
X104435051Y-50352184D01*
X104435049Y-50352181D01*
X104435048Y-50352179D01*
X104310109Y-50180213D01*
X104159786Y-50029890D01*
X103987820Y-49904951D01*
X103798414Y-49808444D01*
X103798413Y-49808443D01*
X103798412Y-49808443D01*
X103596243Y-49742754D01*
X103596241Y-49742753D01*
X103596240Y-49742753D01*
X103434957Y-49717208D01*
X103386287Y-49709500D01*
X103173713Y-49709500D01*
X103125042Y-49717208D01*
X102963760Y-49742753D01*
X102761585Y-49808444D01*
X102572179Y-49904951D01*
X102400213Y-50029890D01*
X102249890Y-50180213D01*
X102124949Y-50352182D01*
X102120484Y-50360946D01*
X102072509Y-50411742D01*
X102004688Y-50428536D01*
X101938553Y-50405998D01*
X101899516Y-50360946D01*
X101895050Y-50352182D01*
X101770109Y-50180213D01*
X101619786Y-50029890D01*
X101447820Y-49904951D01*
X101258414Y-49808444D01*
X101258413Y-49808443D01*
X101258412Y-49808443D01*
X101056243Y-49742754D01*
X101056241Y-49742753D01*
X101056240Y-49742753D01*
X100894957Y-49717208D01*
X100846287Y-49709500D01*
X100633713Y-49709500D01*
X100585042Y-49717208D01*
X100423760Y-49742753D01*
X100221585Y-49808444D01*
X100032179Y-49904951D01*
X99860215Y-50029889D01*
X99746673Y-50143431D01*
X99685350Y-50176915D01*
X99615658Y-50171931D01*
X99559725Y-50130059D01*
X99542810Y-50099082D01*
X99493797Y-49967671D01*
X99493793Y-49967664D01*
X99407547Y-49852455D01*
X99407544Y-49852452D01*
X99292335Y-49766206D01*
X99292328Y-49766202D01*
X99157482Y-49715908D01*
X99157483Y-49715908D01*
X99097883Y-49709501D01*
X99097881Y-49709500D01*
X99097873Y-49709500D01*
X99097864Y-49709500D01*
X97302129Y-49709500D01*
X97302123Y-49709501D01*
X97242516Y-49715908D01*
X97107671Y-49766202D01*
X97107664Y-49766206D01*
X96992455Y-49852452D01*
X96992452Y-49852455D01*
X96906206Y-49967664D01*
X96906202Y-49967671D01*
X96855908Y-50102517D01*
X96849501Y-50162116D01*
X96849500Y-50162135D01*
X91515044Y-50162135D01*
X91493797Y-50105171D01*
X91493793Y-50105164D01*
X91407547Y-49989955D01*
X91407544Y-49989952D01*
X91292335Y-49903706D01*
X91292328Y-49903702D01*
X91157482Y-49853408D01*
X91157483Y-49853408D01*
X91097883Y-49847001D01*
X91097881Y-49847000D01*
X91097873Y-49847000D01*
X91097864Y-49847000D01*
X89302129Y-49847000D01*
X89302123Y-49847001D01*
X89242516Y-49853408D01*
X89107671Y-49903702D01*
X89107664Y-49903706D01*
X88992455Y-49989952D01*
X88992452Y-49989955D01*
X88906206Y-50105164D01*
X88906203Y-50105169D01*
X88857189Y-50236583D01*
X88815317Y-50292516D01*
X88749853Y-50316933D01*
X88681580Y-50302081D01*
X88653326Y-50280930D01*
X88539786Y-50167390D01*
X88367820Y-50042451D01*
X88178414Y-49945944D01*
X88178413Y-49945943D01*
X88178412Y-49945943D01*
X87976243Y-49880254D01*
X87976241Y-49880253D01*
X87976240Y-49880253D01*
X87814957Y-49854708D01*
X87766287Y-49847000D01*
X87553713Y-49847000D01*
X87505042Y-49854708D01*
X87343760Y-49880253D01*
X87267754Y-49904949D01*
X87145331Y-49944727D01*
X87141585Y-49945944D01*
X86952179Y-50042451D01*
X86780213Y-50167390D01*
X86629890Y-50317713D01*
X86504949Y-50489682D01*
X86500484Y-50498446D01*
X86452509Y-50549242D01*
X86384688Y-50566036D01*
X86318553Y-50543498D01*
X86279516Y-50498446D01*
X86275050Y-50489682D01*
X86150109Y-50317713D01*
X85999786Y-50167390D01*
X85827820Y-50042451D01*
X85638414Y-49945944D01*
X85638413Y-49945943D01*
X85638412Y-49945943D01*
X85436243Y-49880254D01*
X85436241Y-49880253D01*
X85436240Y-49880253D01*
X85274957Y-49854708D01*
X85226287Y-49847000D01*
X85013713Y-49847000D01*
X84965042Y-49854708D01*
X84803760Y-49880253D01*
X84727754Y-49904949D01*
X84605331Y-49944727D01*
X84601585Y-49945944D01*
X84412179Y-50042451D01*
X84240213Y-50167390D01*
X84089890Y-50317713D01*
X83964949Y-50489682D01*
X83960484Y-50498446D01*
X83912509Y-50549242D01*
X83844688Y-50566036D01*
X83778553Y-50543498D01*
X83739516Y-50498446D01*
X83735050Y-50489682D01*
X83610109Y-50317713D01*
X83459786Y-50167390D01*
X83287820Y-50042451D01*
X83098414Y-49945944D01*
X83098413Y-49945943D01*
X83098412Y-49945943D01*
X82896243Y-49880254D01*
X82896241Y-49880253D01*
X82896240Y-49880253D01*
X82734957Y-49854708D01*
X82686287Y-49847000D01*
X82473713Y-49847000D01*
X82425042Y-49854708D01*
X82263760Y-49880253D01*
X82187754Y-49904949D01*
X82065331Y-49944727D01*
X82061585Y-49945944D01*
X81872179Y-50042451D01*
X81700213Y-50167390D01*
X81549890Y-50317713D01*
X81424949Y-50489682D01*
X81420202Y-50498999D01*
X81372227Y-50549793D01*
X81304405Y-50566587D01*
X81238271Y-50544048D01*
X81199234Y-50498995D01*
X81194626Y-50489952D01*
X81155270Y-50435782D01*
X81155269Y-50435782D01*
X80522962Y-51068090D01*
X80505925Y-51004507D01*
X80440099Y-50890493D01*
X80347007Y-50797401D01*
X80232993Y-50731575D01*
X80169409Y-50714537D01*
X80801716Y-50082228D01*
X80747550Y-50042875D01*
X80558217Y-49946404D01*
X80356129Y-49880742D01*
X80146246Y-49847500D01*
X79933754Y-49847500D01*
X79723872Y-49880742D01*
X79723869Y-49880742D01*
X79521782Y-49946404D01*
X79332439Y-50042880D01*
X79278282Y-50082227D01*
X79278282Y-50082228D01*
X79910591Y-50714537D01*
X79847007Y-50731575D01*
X79732993Y-50797401D01*
X79639901Y-50890493D01*
X79574075Y-51004507D01*
X79557037Y-51068091D01*
X78924728Y-50435782D01*
X78924727Y-50435782D01*
X78885380Y-50489939D01*
X78788904Y-50679282D01*
X78723242Y-50881369D01*
X78723242Y-50881372D01*
X78690000Y-51091253D01*
X54910500Y-51091253D01*
X54910500Y-50264427D01*
X54910816Y-50255581D01*
X54920467Y-50120641D01*
X54920467Y-50120640D01*
X54926028Y-50042880D01*
X54927165Y-50026979D01*
X54929683Y-50009470D01*
X54977459Y-49789851D01*
X54982436Y-49772900D01*
X55060985Y-49562299D01*
X55068325Y-49546227D01*
X55176044Y-49348956D01*
X55185600Y-49334086D01*
X55320294Y-49154156D01*
X55331868Y-49140799D01*
X55490799Y-48981868D01*
X55504156Y-48970294D01*
X55684086Y-48835600D01*
X55698956Y-48826044D01*
X55896227Y-48718325D01*
X55912299Y-48710985D01*
X56122900Y-48632436D01*
X56139851Y-48627459D01*
X56359472Y-48579682D01*
X56376977Y-48577165D01*
X56605582Y-48560816D01*
X56614428Y-48560500D01*
X56657595Y-48560500D01*
X128127405Y-48560500D01*
X128170572Y-48560500D01*
X128179418Y-48560816D01*
G37*
%TD.AperFunction*%
%TA.AperFunction,Conductor*%
G36*
X130348993Y-60619185D02*
G01*
X130394748Y-60671989D01*
X130403571Y-60699309D01*
X130430261Y-60833489D01*
X130430264Y-60833501D01*
X130490602Y-60979172D01*
X130490606Y-60979179D01*
X130528602Y-61036044D01*
X130549480Y-61102721D01*
X130549500Y-61104935D01*
X130549500Y-66879192D01*
X130529815Y-66946231D01*
X130513181Y-66966873D01*
X129566873Y-67913181D01*
X129505550Y-67946666D01*
X129479192Y-67949500D01*
X124728018Y-67949500D01*
X124660979Y-67929815D01*
X124624914Y-67894388D01*
X124621788Y-67889709D01*
X124510292Y-67778213D01*
X124510288Y-67778210D01*
X124379185Y-67690609D01*
X124379172Y-67690602D01*
X124233501Y-67630264D01*
X124233489Y-67630261D01*
X124078845Y-67599500D01*
X124078842Y-67599500D01*
X123921158Y-67599500D01*
X123921155Y-67599500D01*
X123766510Y-67630261D01*
X123766498Y-67630264D01*
X123620827Y-67690602D01*
X123620814Y-67690609D01*
X123489711Y-67778210D01*
X123489707Y-67778213D01*
X123378213Y-67889707D01*
X123378210Y-67889711D01*
X123290609Y-68020814D01*
X123290602Y-68020827D01*
X123230264Y-68166498D01*
X123230261Y-68166510D01*
X123199500Y-68321153D01*
X123199500Y-68478846D01*
X123230261Y-68633489D01*
X123230264Y-68633501D01*
X123290602Y-68779172D01*
X123290609Y-68779185D01*
X123378210Y-68910288D01*
X123378213Y-68910292D01*
X123489707Y-69021786D01*
X123489711Y-69021789D01*
X123620814Y-69109390D01*
X123620827Y-69109397D01*
X123766498Y-69169735D01*
X123766503Y-69169737D01*
X123921153Y-69200499D01*
X123921156Y-69200500D01*
X123921158Y-69200500D01*
X123925233Y-69200500D01*
X123972685Y-69209939D01*
X124010251Y-69225499D01*
X124010256Y-69225501D01*
X124010260Y-69225501D01*
X124010261Y-69225502D01*
X124135928Y-69250500D01*
X124135931Y-69250500D01*
X129864071Y-69250500D01*
X129948615Y-69233682D01*
X129989744Y-69225501D01*
X130108127Y-69176465D01*
X130118195Y-69169738D01*
X130118198Y-69169736D01*
X130166432Y-69137507D01*
X130214669Y-69105277D01*
X131705277Y-67614669D01*
X131776465Y-67508127D01*
X131825501Y-67389744D01*
X131836205Y-67335931D01*
X131850500Y-67264069D01*
X131850500Y-61104935D01*
X131870185Y-61037896D01*
X131871366Y-61036090D01*
X131909394Y-60979179D01*
X131969737Y-60833497D01*
X131996429Y-60699309D01*
X132028814Y-60637398D01*
X132089529Y-60602824D01*
X132118046Y-60599500D01*
X138940548Y-60599500D01*
X139007587Y-60619185D01*
X139028229Y-60635819D01*
X140355228Y-61962819D01*
X140388713Y-62024142D01*
X140383729Y-62093834D01*
X140341857Y-62149767D01*
X140276393Y-62174184D01*
X140267547Y-62174500D01*
X139538389Y-62174500D01*
X139417555Y-62198535D01*
X139417541Y-62198539D01*
X139380187Y-62214011D01*
X139380141Y-62214031D01*
X139378602Y-62214669D01*
X139303715Y-62245688D01*
X139301162Y-62247394D01*
X139292440Y-62253221D01*
X139292435Y-62253224D01*
X139201268Y-62314140D01*
X139174356Y-62341053D01*
X139114142Y-62401267D01*
X125714144Y-75801264D01*
X125714138Y-75801272D01*
X125645692Y-75903705D01*
X125645684Y-75903719D01*
X125612347Y-75984207D01*
X125606823Y-75997543D01*
X125598537Y-76017545D01*
X125598535Y-76017553D01*
X125574500Y-76138389D01*
X125574500Y-83857650D01*
X125554815Y-83924689D01*
X125553602Y-83926541D01*
X125490609Y-84020815D01*
X125490602Y-84020828D01*
X125430264Y-84166498D01*
X125430261Y-84166508D01*
X125412612Y-84255235D01*
X125380227Y-84317146D01*
X125319511Y-84351720D01*
X125249741Y-84347979D01*
X125203314Y-84318724D01*
X120661819Y-79777229D01*
X120628334Y-79715906D01*
X120625500Y-79689548D01*
X120625500Y-69138393D01*
X120625499Y-69138389D01*
X120618912Y-69105272D01*
X120601463Y-69017548D01*
X120581659Y-68969737D01*
X120554312Y-68903714D01*
X120518754Y-68850500D01*
X120485858Y-68801267D01*
X120485856Y-68801264D01*
X120395637Y-68711045D01*
X120395606Y-68711016D01*
X119261819Y-67577229D01*
X119228334Y-67515906D01*
X119225500Y-67489548D01*
X119225500Y-64655903D01*
X119245185Y-64588864D01*
X119297989Y-64543109D01*
X119301999Y-64541362D01*
X119379179Y-64509394D01*
X119510289Y-64421789D01*
X119621789Y-64310289D01*
X119709394Y-64179179D01*
X119769737Y-64033497D01*
X119800500Y-63878842D01*
X119800500Y-63721158D01*
X119800500Y-63721155D01*
X119800499Y-63721153D01*
X119769737Y-63566503D01*
X119758692Y-63539837D01*
X119709397Y-63420827D01*
X119709390Y-63420814D01*
X119621789Y-63289711D01*
X119621786Y-63289707D01*
X119510292Y-63178213D01*
X119510288Y-63178210D01*
X119379185Y-63090609D01*
X119379172Y-63090602D01*
X119233501Y-63030264D01*
X119233489Y-63030261D01*
X119078845Y-62999500D01*
X119078842Y-62999500D01*
X118921158Y-62999500D01*
X118921155Y-62999500D01*
X118766510Y-63030261D01*
X118766498Y-63030264D01*
X118620827Y-63090602D01*
X118620814Y-63090609D01*
X118489711Y-63178210D01*
X118489707Y-63178213D01*
X118378213Y-63289707D01*
X118378210Y-63289711D01*
X118290609Y-63420814D01*
X118290602Y-63420827D01*
X118230264Y-63566498D01*
X118230261Y-63566508D01*
X118208141Y-63677712D01*
X118175756Y-63739623D01*
X118174207Y-63741200D01*
X118114142Y-63801266D01*
X118114140Y-63801269D01*
X118045690Y-63903708D01*
X118045688Y-63903713D01*
X117998540Y-64017538D01*
X117998535Y-64017554D01*
X117982875Y-64096287D01*
X117974500Y-64138389D01*
X117974500Y-67861611D01*
X117998535Y-67982444D01*
X117998540Y-67982461D01*
X118045685Y-68096281D01*
X118045687Y-68096284D01*
X118045688Y-68096286D01*
X118067087Y-68128311D01*
X118114142Y-68198733D01*
X118201267Y-68285858D01*
X118201270Y-68285860D01*
X118209105Y-68293695D01*
X119338181Y-69422771D01*
X119371666Y-69484094D01*
X119374500Y-69510452D01*
X119374500Y-80061610D01*
X119390274Y-80140910D01*
X119398537Y-80182452D01*
X119412347Y-80215792D01*
X119445688Y-80296286D01*
X119473824Y-80338393D01*
X119477975Y-80344606D01*
X119477978Y-80344611D01*
X119514138Y-80398728D01*
X119514144Y-80398736D01*
X119605586Y-80490178D01*
X119605608Y-80490198D01*
X124878229Y-85762819D01*
X124911714Y-85824142D01*
X124906730Y-85893834D01*
X124864858Y-85949767D01*
X124799394Y-85974184D01*
X124790548Y-85974500D01*
X123594444Y-85974500D01*
X123527405Y-85954815D01*
X123506763Y-85938181D01*
X111002071Y-73433489D01*
X98379761Y-60811180D01*
X98346277Y-60749858D01*
X98351261Y-60680166D01*
X98393133Y-60624233D01*
X98458597Y-60599816D01*
X98467443Y-60599500D01*
X130281954Y-60599500D01*
X130348993Y-60619185D01*
G37*
%TD.AperFunction*%
%TA.AperFunction,Conductor*%
G36*
X142342884Y-67445185D02*
G01*
X142388639Y-67497989D01*
X142398583Y-67567147D01*
X142369558Y-67630703D01*
X142363526Y-67637181D01*
X137062527Y-72938181D01*
X137001204Y-72971666D01*
X136974846Y-72974500D01*
X135609452Y-72974500D01*
X135542413Y-72954815D01*
X135496658Y-72902011D01*
X135486714Y-72832853D01*
X135515739Y-72769297D01*
X135521771Y-72762819D01*
X140822771Y-67461819D01*
X140884094Y-67428334D01*
X140910452Y-67425500D01*
X142275845Y-67425500D01*
X142342884Y-67445185D01*
G37*
%TD.AperFunction*%
%TA.AperFunction,Conductor*%
G36*
X147358767Y-66835043D02*
G01*
X147391434Y-66844005D01*
X147392203Y-66844861D01*
X147393306Y-66845185D01*
X147415474Y-66870769D01*
X147438124Y-66895984D01*
X147438308Y-66897120D01*
X147439061Y-66897989D01*
X147443882Y-66931520D01*
X147449300Y-66964954D01*
X147448841Y-66966007D01*
X147449005Y-66967147D01*
X147434924Y-66997978D01*
X147421414Y-67029017D01*
X147420288Y-67030028D01*
X147419980Y-67030703D01*
X147395158Y-67052602D01*
X147341970Y-67088140D01*
X147298407Y-67131703D01*
X147254844Y-67175267D01*
X147254841Y-67175270D01*
X142117931Y-72312181D01*
X142056608Y-72345666D01*
X142030250Y-72348500D01*
X139720750Y-72348500D01*
X139653711Y-72328815D01*
X139607956Y-72276011D01*
X139598012Y-72206853D01*
X139627037Y-72143297D01*
X139633069Y-72136819D01*
X142259437Y-69510452D01*
X144908070Y-66861819D01*
X144969393Y-66828334D01*
X144995751Y-66825500D01*
X147326267Y-66825500D01*
X147358767Y-66835043D01*
G37*
%TD.AperFunction*%
%TA.AperFunction,Conductor*%
G36*
X143010098Y-60045185D02*
G01*
X143055853Y-60097989D01*
X143065797Y-60167147D01*
X143036772Y-60230703D01*
X143030740Y-60237181D01*
X142978213Y-60289707D01*
X142978210Y-60289711D01*
X142890609Y-60420814D01*
X142890602Y-60420827D01*
X142830264Y-60566498D01*
X142830261Y-60566508D01*
X142808141Y-60677714D01*
X142775756Y-60739625D01*
X142774205Y-60741203D01*
X142048803Y-61466605D01*
X141987480Y-61500090D01*
X141917788Y-61495106D01*
X141864763Y-61455411D01*
X141864149Y-61455915D01*
X141862098Y-61453416D01*
X141861855Y-61453234D01*
X141861264Y-61452399D01*
X141860284Y-61451205D01*
X141748792Y-61339713D01*
X141748788Y-61339710D01*
X141617685Y-61252109D01*
X141617672Y-61252102D01*
X141472001Y-61191764D01*
X141471989Y-61191761D01*
X141360786Y-61169641D01*
X141298875Y-61137256D01*
X141297296Y-61135705D01*
X140860900Y-60699309D01*
X140398770Y-60237180D01*
X140365286Y-60175858D01*
X140370270Y-60106167D01*
X140412142Y-60050233D01*
X140477606Y-60025816D01*
X140486452Y-60025500D01*
X142943059Y-60025500D01*
X143010098Y-60045185D01*
G37*
%TD.AperFunction*%
%TD*%
M02*
