%TF.GenerationSoftware,KiCad,Pcbnew,9.0.2*%
%TF.CreationDate,2025-07-21T02:07:20+05:30*%
%TF.ProjectId,2,322e6b69-6361-4645-9f70-636258585858,rev?*%
%TF.SameCoordinates,Original*%
%TF.FileFunction,Paste,Top*%
%TF.FilePolarity,Positive*%
%FSLAX46Y46*%
G04 Gerber Fmt 4.6, Leading zero omitted, Abs format (unit mm)*
G04 Created by KiCad (PCBNEW 9.0.2) date 2025-07-21 02:07:20*
%MOMM*%
%LPD*%
G01*
G04 APERTURE LIST*
G04 Aperture macros list*
%AMRoundRect*
0 Rectangle with rounded corners*
0 $1 Rounding radius*
0 $2 $3 $4 $5 $6 $7 $8 $9 X,Y pos of 4 corners*
0 Add a 4 corners polygon primitive as box body*
4,1,4,$2,$3,$4,$5,$6,$7,$8,$9,$2,$3,0*
0 Add four circle primitives for the rounded corners*
1,1,$1+$1,$2,$3*
1,1,$1+$1,$4,$5*
1,1,$1+$1,$6,$7*
1,1,$1+$1,$8,$9*
0 Add four rect primitives between the rounded corners*
20,1,$1+$1,$2,$3,$4,$5,0*
20,1,$1+$1,$4,$5,$6,$7,0*
20,1,$1+$1,$6,$7,$8,$9,0*
20,1,$1+$1,$8,$9,$2,$3,0*%
G04 Aperture macros list end*
%ADD10R,1.000000X5.500000*%
%ADD11R,1.600000X3.000000*%
%ADD12R,0.200000X1.000000*%
%ADD13R,0.200000X1.200000*%
%ADD14R,0.300000X1.200000*%
%ADD15R,0.300000X1.000000*%
%ADD16RoundRect,0.150000X-0.150000X0.512500X-0.150000X-0.512500X0.150000X-0.512500X0.150000X0.512500X0*%
%ADD17R,0.900000X0.300000*%
%ADD18R,0.300000X0.300000*%
%ADD19R,0.250000X0.800000*%
%ADD20R,0.300000X0.900000*%
%ADD21R,0.100000X0.400000*%
%ADD22R,0.100000X0.300000*%
%ADD23R,0.900000X0.200000*%
%ADD24R,0.100000X0.600000*%
%ADD25R,0.200000X0.900000*%
%ADD26R,0.200000X0.500000*%
%ADD27R,0.540000X0.540000*%
%ADD28RoundRect,0.250000X0.450000X-0.262500X0.450000X0.262500X-0.450000X0.262500X-0.450000X-0.262500X0*%
%ADD29R,0.800000X1.500000*%
%ADD30R,1.450000X2.000000*%
%ADD31RoundRect,0.250000X-0.450000X0.262500X-0.450000X-0.262500X0.450000X-0.262500X0.450000X0.262500X0*%
%ADD32RoundRect,0.250000X0.255000X0.255000X-0.255000X0.255000X-0.255000X-0.255000X0.255000X-0.255000X0*%
%ADD33RoundRect,0.062500X0.350000X0.062500X-0.350000X0.062500X-0.350000X-0.062500X0.350000X-0.062500X0*%
%ADD34RoundRect,0.062500X0.062500X0.350000X-0.062500X0.350000X-0.062500X-0.350000X0.062500X-0.350000X0*%
%ADD35RoundRect,0.250000X-0.250000X-0.475000X0.250000X-0.475000X0.250000X0.475000X-0.250000X0.475000X0*%
%ADD36R,1.200000X1.470000*%
%ADD37R,1.230000X1.800000*%
%ADD38R,0.550000X0.570000*%
%ADD39RoundRect,0.250000X0.262500X0.450000X-0.262500X0.450000X-0.262500X-0.450000X0.262500X-0.450000X0*%
%ADD40RoundRect,0.250000X-0.475000X0.250000X-0.475000X-0.250000X0.475000X-0.250000X0.475000X0.250000X0*%
%ADD41RoundRect,0.250000X0.250000X0.475000X-0.250000X0.475000X-0.250000X-0.475000X0.250000X-0.475000X0*%
%ADD42R,0.700000X0.700000*%
%ADD43R,1.500000X0.900000*%
%ADD44RoundRect,0.250000X0.475000X-0.250000X0.475000X0.250000X-0.475000X0.250000X-0.475000X-0.250000X0*%
%ADD45R,0.910000X2.810000*%
%ADD46R,1.400000X1.000000*%
%ADD47RoundRect,0.150000X0.150000X-0.587500X0.150000X0.587500X-0.150000X0.587500X-0.150000X-0.587500X0*%
%ADD48RoundRect,0.250000X-0.262500X-0.450000X0.262500X-0.450000X0.262500X0.450000X-0.262500X0.450000X0*%
%ADD49R,3.250000X2.150000*%
%ADD50R,0.950000X2.150000*%
%ADD51R,1.800000X1.230000*%
%ADD52R,1.100000X1.000000*%
%ADD53R,1.100000X0.800000*%
%ADD54R,1.000000X1.400000*%
%ADD55RoundRect,0.100000X0.495000X0.100000X-0.495000X0.100000X-0.495000X-0.100000X0.495000X-0.100000X0*%
%ADD56O,1.600000X0.600000*%
%ADD57RoundRect,0.056250X-0.188750X-0.168750X0.188750X-0.168750X0.188750X0.168750X-0.188750X0.168750X0*%
G04 APERTURE END LIST*
D10*
%TO.C,J3*%
X60700000Y-105912500D03*
X62700000Y-105912500D03*
D11*
X58300000Y-103662500D03*
X65100000Y-103662500D03*
%TD*%
D12*
%TO.C,J1*%
X97407500Y-97842500D03*
X97907500Y-97842500D03*
D13*
X98407500Y-97842500D03*
D14*
X98907500Y-97842500D03*
D15*
X99407500Y-97842500D03*
D14*
X99907500Y-97842500D03*
X100407500Y-97842500D03*
X100907500Y-97842500D03*
X101407500Y-97842500D03*
X101907500Y-97842500D03*
D13*
X102407500Y-97842500D03*
D14*
X102907500Y-97842500D03*
D12*
X100157500Y-102422500D03*
X100157500Y-105522500D03*
%TD*%
D16*
%TO.C,U2*%
X101212500Y-90835000D03*
X100262500Y-90835000D03*
X99312500Y-90835000D03*
X99312500Y-93110000D03*
X100262500Y-93110000D03*
X101212500Y-93110000D03*
%TD*%
D17*
%TO.C,U3*%
X98200000Y-87172500D03*
X98200000Y-86672500D03*
X98200000Y-86172500D03*
X98200000Y-85672500D03*
D18*
X98500000Y-85172500D03*
D19*
X99000000Y-84872500D03*
D20*
X99500000Y-84872500D03*
D21*
X100000000Y-84872500D03*
D20*
X100500000Y-84872500D03*
D22*
X101000000Y-85172500D03*
D17*
X101300000Y-85672500D03*
X101300000Y-86172500D03*
X101300000Y-86672500D03*
D23*
X101300000Y-87172500D03*
D24*
X101000000Y-87672500D03*
D20*
X100500000Y-87972500D03*
D25*
X100000000Y-87972500D03*
D26*
X99500000Y-87972500D03*
D22*
X99000000Y-87972500D03*
D18*
X98500000Y-87672500D03*
D27*
X100200000Y-85972500D03*
X99300000Y-85972500D03*
X100200000Y-86872500D03*
X99300000Y-86872500D03*
%TD*%
D28*
%TO.C,R1X2*%
X153200000Y-70887500D03*
X153200000Y-72712500D03*
%TD*%
D29*
%TO.C,J6*%
X139900000Y-80330000D03*
X141000000Y-80330000D03*
X142100000Y-80330000D03*
X143200000Y-80330000D03*
X144300000Y-80330000D03*
X145400000Y-80330000D03*
X146500000Y-80330000D03*
X147600000Y-80330000D03*
D30*
X136225000Y-77730000D03*
X136225000Y-86030000D03*
X149975000Y-77730000D03*
X149975000Y-86030000D03*
%TD*%
D28*
%TO.C,R14*%
X132800000Y-62000000D03*
X132800000Y-63825000D03*
%TD*%
D31*
%TO.C,R1X1*%
X135400000Y-62000000D03*
X135400000Y-63825000D03*
%TD*%
D32*
%TO.C,U1*%
X73100000Y-103477500D03*
X73100000Y-102227500D03*
X71850000Y-103477500D03*
X71850000Y-102227500D03*
D33*
X74412500Y-103852500D03*
X74412500Y-103352500D03*
X74412500Y-102852500D03*
X74412500Y-102352500D03*
X74412500Y-101852500D03*
D34*
X73475000Y-100915000D03*
X72975000Y-100915000D03*
X72475000Y-100915000D03*
X71975000Y-100915000D03*
X71475000Y-100915000D03*
D33*
X70537500Y-101852500D03*
X70537500Y-102352500D03*
X70537500Y-102852500D03*
X70537500Y-103352500D03*
X70537500Y-103852500D03*
D34*
X71475000Y-104790000D03*
X71975000Y-104790000D03*
X72475000Y-104790000D03*
X72975000Y-104790000D03*
X73475000Y-104790000D03*
%TD*%
D35*
%TO.C,C6*%
X71525000Y-107417500D03*
X73425000Y-107417500D03*
%TD*%
D36*
%TO.C,FB1*%
X79535000Y-106252500D03*
X77815000Y-106252500D03*
%TD*%
D37*
%TO.C,C8*%
X106800000Y-85262500D03*
X106800000Y-87882500D03*
%TD*%
D31*
%TO.C,R1*%
X92827500Y-101085000D03*
X92827500Y-99260000D03*
%TD*%
D38*
%TO.C,S1*%
X133657500Y-106205000D03*
X131107500Y-106205000D03*
X133657500Y-105045000D03*
X131107500Y-105045000D03*
%TD*%
D31*
%TO.C,R12*%
X113200000Y-86562500D03*
X113200000Y-84737500D03*
%TD*%
D28*
%TO.C,R8*%
X78800000Y-95800000D03*
X78800000Y-97625000D03*
%TD*%
D39*
%TO.C,R25*%
X82487500Y-66772500D03*
X84312500Y-66772500D03*
%TD*%
D40*
%TO.C,C27*%
X129500000Y-80280000D03*
X129500000Y-78380000D03*
%TD*%
D39*
%TO.C,R6*%
X66000000Y-72772500D03*
X67825000Y-72772500D03*
%TD*%
D41*
%TO.C,C16*%
X75900000Y-62572500D03*
X77800000Y-62572500D03*
%TD*%
D42*
%TO.C,U5*%
X155922500Y-64060000D03*
X154822500Y-64060000D03*
X153722500Y-64060000D03*
X155922500Y-62960000D03*
X154822500Y-62960000D03*
X153722500Y-62960000D03*
X155922500Y-61860000D03*
X154822500Y-61860000D03*
X153722500Y-61860000D03*
D43*
X162612500Y-56760000D03*
X162612500Y-58260000D03*
X162612500Y-59760000D03*
X162612500Y-61260000D03*
X162612500Y-62760000D03*
X162612500Y-64260000D03*
X162612500Y-65760000D03*
X162612500Y-67260000D03*
X162612500Y-68760000D03*
X145112500Y-68760000D03*
X145112500Y-67260000D03*
X145112500Y-65760000D03*
X145112500Y-64260000D03*
X145112500Y-62760000D03*
X145112500Y-61260000D03*
X145112500Y-59760000D03*
X145112500Y-58260000D03*
X145112500Y-56760000D03*
%TD*%
D44*
%TO.C,C11*%
X141605000Y-56835000D03*
X141605000Y-58735000D03*
%TD*%
D45*
%TO.C,F1*%
X87580000Y-92772500D03*
X90820000Y-92772500D03*
%TD*%
D28*
%TO.C,R5*%
X65100000Y-95912500D03*
X65100000Y-97737500D03*
%TD*%
D37*
%TO.C,C3*%
X72800000Y-80972500D03*
X72800000Y-78352500D03*
%TD*%
D46*
%TO.C,LED1*%
X58350000Y-90912500D03*
X58350000Y-92712500D03*
%TD*%
%TO.C,LED5*%
X92000000Y-81472500D03*
X92000000Y-83272500D03*
%TD*%
D35*
%TO.C,C18*%
X90550000Y-69372500D03*
X88650000Y-69372500D03*
%TD*%
D46*
%TO.C,LED2*%
X61700000Y-90912500D03*
X61700000Y-92712500D03*
%TD*%
D28*
%TO.C,R21*%
X71550000Y-50347500D03*
X71550000Y-52172500D03*
%TD*%
D47*
%TO.C,Q2*%
X124232500Y-93287500D03*
X125182500Y-95162500D03*
X123282500Y-95162500D03*
%TD*%
D44*
%TO.C,C17*%
X93400000Y-65022500D03*
X93400000Y-66922500D03*
%TD*%
D28*
%TO.C,R15*%
X95400000Y-85460000D03*
X95400000Y-87285000D03*
%TD*%
D48*
%TO.C,R27*%
X109712500Y-64200000D03*
X107887500Y-64200000D03*
%TD*%
D40*
%TO.C,C9*%
X103800000Y-87562500D03*
X103800000Y-85662500D03*
%TD*%
D47*
%TO.C,Q3*%
X132382500Y-93087500D03*
X133332500Y-94962500D03*
X131432500Y-94962500D03*
%TD*%
D49*
%TO.C,VR1*%
X78600000Y-75472500D03*
D50*
X80900000Y-81272500D03*
X78600000Y-81272500D03*
X76300000Y-81272500D03*
%TD*%
D35*
%TO.C,C15*%
X64350000Y-53947500D03*
X62450000Y-53947500D03*
%TD*%
D28*
%TO.C,R28*%
X96200000Y-65060000D03*
X96200000Y-66885000D03*
%TD*%
D51*
%TO.C,C2*%
X77290000Y-84772500D03*
X79910000Y-84772500D03*
%TD*%
D39*
%TO.C,R30*%
X131557500Y-98025000D03*
X133382500Y-98025000D03*
%TD*%
D35*
%TO.C,C5*%
X106400000Y-95572500D03*
X104500000Y-95572500D03*
%TD*%
D41*
%TO.C,C25*%
X101700000Y-67560000D03*
X103600000Y-67560000D03*
%TD*%
D39*
%TO.C,R26*%
X82490000Y-64452500D03*
X84315000Y-64452500D03*
%TD*%
D41*
%TO.C,C20*%
X122982500Y-102425000D03*
X124882500Y-102425000D03*
%TD*%
D31*
%TO.C,R13*%
X99800000Y-82285000D03*
X99800000Y-80460000D03*
%TD*%
D52*
%TO.C,Q1*%
X109755000Y-67460000D03*
D53*
X106245000Y-68010000D03*
X106245000Y-66910000D03*
%TD*%
D28*
%TO.C,R31*%
X120200000Y-96087500D03*
X120200000Y-97912500D03*
%TD*%
%TO.C,R3*%
X58500000Y-95800000D03*
X58500000Y-97625000D03*
%TD*%
D48*
%TO.C,R22*%
X90112500Y-63400000D03*
X88287500Y-63400000D03*
%TD*%
D41*
%TO.C,C24*%
X101600000Y-64960000D03*
X103500000Y-64960000D03*
%TD*%
D28*
%TO.C,R17*%
X142800000Y-62800000D03*
X142800000Y-64625000D03*
%TD*%
D39*
%TO.C,R23*%
X75975000Y-65172500D03*
X77800000Y-65172500D03*
%TD*%
D38*
%TO.C,S2*%
X125082500Y-106185000D03*
X122532500Y-106185000D03*
X125082500Y-105025000D03*
X122532500Y-105025000D03*
%TD*%
D54*
%TO.C,LED4*%
X61325000Y-72772500D03*
X63125000Y-72772500D03*
%TD*%
D41*
%TO.C,C22*%
X75900000Y-67972500D03*
X77800000Y-67972500D03*
%TD*%
%TO.C,C1*%
X77650000Y-87682500D03*
X79550000Y-87682500D03*
%TD*%
D39*
%TO.C,R24*%
X82487500Y-69722500D03*
X84312500Y-69722500D03*
%TD*%
D28*
%TO.C,R11*%
X115600000Y-84737500D03*
X115600000Y-86562500D03*
%TD*%
D41*
%TO.C,C19*%
X131432500Y-102425000D03*
X133332500Y-102425000D03*
%TD*%
D28*
%TO.C,R2*%
X92827500Y-103460000D03*
X92827500Y-105285000D03*
%TD*%
%TO.C,R4*%
X61700000Y-95800000D03*
X61700000Y-97625000D03*
%TD*%
D55*
%TO.C,U7*%
X88440000Y-67050000D03*
X88440000Y-65750000D03*
X90360000Y-65750000D03*
X90360000Y-66400000D03*
X90360000Y-67050000D03*
%TD*%
D40*
%TO.C,C4*%
X69600000Y-79412500D03*
X69600000Y-77512500D03*
%TD*%
D46*
%TO.C,LED6*%
X95350000Y-81372500D03*
X95350000Y-83172500D03*
%TD*%
D28*
%TO.C,R16*%
X92200000Y-85460000D03*
X92200000Y-87285000D03*
%TD*%
%TO.C,R7*%
X75700000Y-95800000D03*
X75700000Y-97625000D03*
%TD*%
D39*
%TO.C,R29*%
X123270000Y-98425000D03*
X125095000Y-98425000D03*
%TD*%
D56*
%TO.C,U4*%
X129300000Y-62367500D03*
X129300000Y-63637500D03*
X129300000Y-64907500D03*
X129300000Y-66177500D03*
X122100000Y-66177500D03*
X122100000Y-64907500D03*
X122100000Y-63637500D03*
X122100000Y-62367500D03*
%TD*%
D44*
%TO.C,C10*%
X114800000Y-61300000D03*
X114800000Y-63200000D03*
%TD*%
D28*
%TO.C,R9*%
X70000000Y-95800000D03*
X70000000Y-97625000D03*
%TD*%
D37*
%TO.C,C26*%
X132700000Y-78330000D03*
X132700000Y-80950000D03*
%TD*%
D48*
%TO.C,R32*%
X134012500Y-84617500D03*
X132187500Y-84617500D03*
%TD*%
D28*
%TO.C,R20*%
X68750000Y-50347500D03*
X68750000Y-52172500D03*
%TD*%
%TO.C,R10*%
X72600000Y-95800000D03*
X72600000Y-97625000D03*
%TD*%
D41*
%TO.C,C23*%
X101650000Y-62560000D03*
X103550000Y-62560000D03*
%TD*%
D46*
%TO.C,LED3*%
X65050000Y-90912500D03*
X65050000Y-92712500D03*
%TD*%
D41*
%TO.C,C21*%
X82500000Y-61772500D03*
X84400000Y-61772500D03*
%TD*%
D31*
%TO.C,R19*%
X140000000Y-66625000D03*
X140000000Y-64800000D03*
%TD*%
D44*
%TO.C,C7*%
X110800000Y-84650000D03*
X110800000Y-86550000D03*
%TD*%
D37*
%TO.C,C13*%
X138605000Y-60355000D03*
X138605000Y-57735000D03*
%TD*%
D57*
%TO.C,U6*%
X62430000Y-50172500D03*
X62430000Y-50822500D03*
X62430000Y-51472500D03*
X62430000Y-52122500D03*
X64370000Y-52122500D03*
X64370000Y-51472500D03*
X64370000Y-50822500D03*
X64370000Y-50172500D03*
%TD*%
M02*
