M48
; DRILL file {KiCad 9.0.2} date 2025-07-21T02:01:26+0530
; FORMAT={-:-/ absolute / metric / decimal}
; #@! TF.CreationDate,2025-07-21T02:01:26+05:30
; #@! TF.GenerationSoftware,Kicad,Pcbnew,9.0.2
; #@! TF.FileFunction,Plated,1,2,PTH
FMAT,2
METRIC
; #@! TA.AperFunction,Plated,PTH,ViaDrill
T1C0.300
; #@! TA.AperFunction,Plated,PTH,ComponentDrill
T2C0.300
; #@! TA.AperFunction,Plated,PTH,ComponentDrill
T3C0.450
; #@! TA.AperFunction,Plated,PTH,ComponentDrill
T4C0.650
; #@! TA.AperFunction,Plated,PTH,ComponentDrill
T5C0.700
; #@! TA.AperFunction,Plated,PTH,ComponentDrill
T6C1.000
%
G90
G05
T1
X56.8Y-106.8
X60.8Y-50.6
X61.2Y-52.6
X64.37Y-49.43
X66.2Y-54.8
X66.8Y-80.0
X68.4Y-71.0
X69.2Y-94.2
X71.0Y-99.6
X71.4Y-95.8
X71.8Y-83.4
X74.2Y-83.6
X74.2Y-95.8
X74.8Y-85.8
X75.182Y-107.417
X76.2Y-88.2
X76.2Y-102.6
X77.2Y-95.8
X79.0Y-59.8
X80.4Y-67.6
X82.8Y-56.0
X84.8Y-59.4
X86.4Y-67.4
X86.4Y-71.4
X86.6Y-61.0
X86.6Y-62.2
X88.22Y-56.78
X88.4Y-53.7
X90.6Y-61.8
X90.828Y-100.4
X91.087Y-103.46
X91.8Y-62.079
X91.8Y-66.6
X93.2Y-70.2
X94.6Y-59.2
X95.865Y-97.6
X96.4Y-95.0
X96.6Y-96.4
X96.807Y-85.393
X96.828Y-101.4
X97.055Y-104.972
X97.6Y-82.2
X98.5Y-83.7
X98.8Y-59.0
X99.2Y-102.0
X99.4Y-95.6
X99.8Y-76.8
X99.8Y-83.8
X100.262Y-89.938
X100.5Y-84.3
X100.843Y-96.157
X100.877Y-105.522
X101.6Y-95.4
X101.65Y-63.8
X102.227Y-104.6
X102.4Y-89.4
X102.6Y-64.96
X102.6Y-67.56
X102.8Y-84.6
X103.8Y-84.6
X103.8Y-97.2
X105.0Y-66.91
X105.4Y-56.2
X106.2Y-83.0
X106.227Y-100.6
X106.245Y-65.645
X107.8Y-73.2
X107.8Y-94.8
X109.0Y-78.0
X111.2Y-83.6
X113.6Y-83.6
X116.3Y-61.3
X119.0Y-63.8
X119.8Y-65.8
X120.625Y-102.425
X124.0Y-68.4
X124.0Y-104.304
X126.2Y-84.4
X127.2Y-93.0
X128.0Y-99.2
X128.2Y-75.6
X131.2Y-60.6
X132.4Y-100.6
X132.4Y-104.324
X133.4Y-74.8
X133.923Y-67.523
X134.8Y-73.6
X137.4Y-63.0
X138.2Y-78.2
X138.6Y-86.8
X138.974Y-72.974
X139.2Y-69.2
X139.9Y-79.1
X140.6Y-95.6
X141.0Y-68.8
X141.238Y-61.961
X141.422Y-70.978
X142.4Y-60.2
X143.2Y-66.8
X143.2Y-70.2
X143.44Y-68.76
X143.6Y-60.8
X146.8Y-60.2
X147.2Y-78.2
X147.8Y-56.8
X148.0Y-68.2
X150.6Y-65.0
X152.0Y-86.0
X152.4Y-77.0
X158.2Y-62.2
X159.4Y-66.2
X159.557Y-67.584
X160.9Y-63.9
X165.2Y-59.0
T2
X153.722Y-62.41
X153.722Y-63.51
X154.272Y-61.86
X154.272Y-62.96
X154.272Y-64.06
X154.822Y-62.41
X154.822Y-63.51
X155.373Y-61.86
X155.373Y-62.96
X155.373Y-64.06
X155.922Y-62.41
X155.922Y-63.51
T3
X97.358Y-99.093
X97.757Y-99.802
X98.157Y-99.093
X98.557Y-99.802
X98.957Y-99.093
X99.358Y-99.802
X99.757Y-99.093
X100.557Y-99.093
X100.957Y-99.802
X101.358Y-99.093
X101.757Y-99.802
X102.157Y-99.093
X102.557Y-99.802
X102.957Y-99.093
T5
X69.123Y-63.522
X69.123Y-65.422
T6
X80.04Y-51.197
X82.58Y-51.197
X85.12Y-51.197
X87.66Y-51.197
X90.2Y-51.197
X98.2Y-51.06
X100.74Y-51.06
X103.28Y-51.06
X105.82Y-51.06
T4
G00X95.887Y-99.942
M15
G01X95.887Y-100.542
M16
G05
G00X95.887Y-104.672
M15
G01X95.887Y-105.272
M16
G05
G00X104.427Y-99.942
M15
G01X104.427Y-100.542
M16
G05
G00X104.427Y-104.672
M15
G01X104.427Y-105.272
M16
G05
M30
